<svg xmlns="http://www.w3.org/2000/svg" xmlns:xlink="http://www.w3.org/1999/xlink" width="500" zoomAndPan="magnify" viewBox="0 0 375 374.999991" height="500" preserveAspectRatio="xMidYMid meet" version="1.0"><defs><clipPath id="c009cbfa18"><path d="M 166.308594 265.632812 L 208.691406 265.632812 L 208.691406 375 L 166.308594 375 Z M 166.308594 265.632812 " clip-rule="nonzero"/></clipPath><clipPath id="e934e98c04"><path d="M 171.558594 265.632812 L 203.441406 265.632812 C 206.34375 265.632812 208.691406 267.984375 208.691406 270.882812 L 208.691406 369.75 C 208.691406 372.648438 206.34375 375 203.441406 375 L 171.558594 375 C 168.65625 375 166.308594 372.648438 166.308594 369.75 L 166.308594 270.882812 C 166.308594 267.984375 168.65625 265.632812 171.558594 265.632812 Z M 171.558594 265.632812 " clip-rule="nonzero"/></clipPath><clipPath id="632e1d552b"><path d="M 0.308594 0.632812 L 42.691406 0.632812 L 42.691406 110 L 0.308594 110 Z M 0.308594 0.632812 " clip-rule="nonzero"/></clipPath><clipPath id="02b5f9d165"><path d="M 5.558594 0.632812 L 37.441406 0.632812 C 40.34375 0.632812 42.691406 2.984375 42.691406 5.882812 L 42.691406 104.75 C 42.691406 107.648438 40.34375 110 37.441406 110 L 5.558594 110 C 2.65625 110 0.308594 107.648438 0.308594 104.75 L 0.308594 5.882812 C 0.308594 2.984375 2.65625 0.632812 5.558594 0.632812 Z M 5.558594 0.632812 " clip-rule="nonzero"/></clipPath><clipPath id="b821a658f3"><rect x="0" width="43" y="0" height="110"/></clipPath><clipPath id="26bbe488b8"><path d="M 40.15625 0 L 334.84375 0 L 334.84375 294.6875 L 40.15625 294.6875 Z M 40.15625 0 " clip-rule="nonzero"/></clipPath><clipPath id="11d9862a3c"><path d="M 187.5 0 C 106.125 0 40.15625 65.96875 40.15625 147.34375 C 40.15625 228.71875 106.125 294.6875 187.5 294.6875 C 268.875 294.6875 334.84375 228.71875 334.84375 147.34375 C 334.84375 65.96875 268.875 0 187.5 0 Z M 187.5 0 " clip-rule="nonzero"/></clipPath><clipPath id="8e77a27679"><path d="M 0.15625 0 L 294.84375 0 L 294.84375 294.6875 L 0.15625 294.6875 Z M 0.15625 0 " clip-rule="nonzero"/></clipPath><clipPath id="fac78b50ed"><path d="M 147.5 0 C 66.125 0 0.15625 65.96875 0.15625 147.34375 C 0.15625 228.71875 66.125 294.6875 147.5 294.6875 C 228.875 294.6875 294.84375 228.71875 294.84375 147.34375 C 294.84375 65.96875 228.875 0 147.5 0 Z M 147.5 0 " clip-rule="nonzero"/></clipPath><clipPath id="3b225632a8"><rect x="0" width="295" y="0" height="295"/></clipPath></defs><g clip-path="url(#c009cbfa18)"><g clip-path="url(#e934e98c04)"><g transform="matrix(1, 0, 0, 1, 166, 265)"><g clip-path="url(#b821a658f3)"><g clip-path="url(#632e1d552b)"><g clip-path="url(#02b5f9d165)"><path fill="#7a2f00" d="M 0.308594 0.632812 L 42.691406 0.632812 L 42.691406 110.078125 L 0.308594 110.078125 Z M 0.308594 0.632812 " fill-opacity="1" fill-rule="nonzero"/></g></g></g></g></g></g><g clip-path="url(#26bbe488b8)"><g clip-path="url(#11d9862a3c)"><g transform="matrix(1, 0, 0, 1, 40, 0)"><g clip-path="url(#3b225632a8)"><g clip-path="url(#8e77a27679)"><g clip-path="url(#fac78b50ed)"><path fill="#4ca626" d="M 0.15625 0 L 294.84375 0 L 294.84375 294.6875 L 0.15625 294.6875 Z M 0.15625 0 " fill-opacity="1" fill-rule="nonzero"/></g></g></g></g></g></g></svg>