<?xml version="1.0" encoding="UTF-8" standalone="no"?>
<!DOCTYPE svg PUBLIC "-//W3C//DTD SVG 1.1//EN" "http://www.w3.org/Graphics/SVG/1.1/DTD/svg11.dtd">
<svg xmlns="http://www.w3.org/2000/svg" version="1.1" viewBox="0.00 0.00 1200.00 430.00">
<g stroke-width="2.00" fill="none" stroke-linecap="butt">
<path stroke="#5e6f30" vector-effect="non-scaling-stroke" d="
  M 139.23 216.38
  L 115.19 216.31"
/>
<path stroke="#444325" vector-effect="non-scaling-stroke" d="
  M 139.24 333.90
  L 115.19 333.88"
/>
<path stroke="#93a292" vector-effect="non-scaling-stroke" d="
  M 233.6943 350.9539
  A 3.48 3.12 -82.0 0 0 230.1204 353.9658
  A 3.48 3.12 -82.0 0 0 232.7257 357.8461
  A 3.48 3.12 -82.0 0 0 236.2996 354.8342
  A 3.48 3.12 -82.0 0 0 233.6943 350.9539"
/>
<path stroke="#93a292" vector-effect="non-scaling-stroke" d="
  M 426.2875 350.9845
  A 3.46 3.22 -81.9 0 0 422.6121 353.9563
  A 3.46 3.22 -81.9 0 0 425.3125 357.8355
  A 3.46 3.22 -81.9 0 0 428.9879 354.8637
  A 3.46 3.22 -81.9 0 0 426.2875 350.9845"
/>
<path stroke="#93a292" vector-effect="non-scaling-stroke" d="
  M 223.19 372.67
  L 204.72 372.75
  A 2.37 2.36 3.9 0 0 202.39 374.77
  L 202.37 374.94
  A 1.61 1.61 0.0 0 0 203.97 376.74
  L 217.73 376.71
  A 0.85 0.85 0.0 0 1 218.56 377.73
  C 216.38 388.24 206.85 392.36 197.70 387.90
  C 188.12 383.23 187.22 366.73 196.88 360.88
  Q 204.06 356.52 212.00 360.68
  A 5.72 5.55 80.7 0 1 213.42 361.73
  C 216.46 364.80 217.73 366.71 221.68 366.06
  A 0.63 0.63 0.0 0 0 222.18 365.25
  C 219.51 356.89 209.73 353.09 201.69 354.24
  C 186.91 356.35 179.75 374.13 188.75 386.30
  C 194.67 394.29 204.94 396.30 213.71 391.96
  Q 223.84 386.95 223.90 373.39
  A 0.71 0.71 0.0 0 0 223.19 372.67"
/>
<path stroke="#93a292" vector-effect="non-scaling-stroke" d="
  M 478.81 393.12
  L 470.28 378.36
  A 0.76 0.75 -29.2 0 1 470.58 377.32
  Q 472.96 376.05 474.11 375.34
  C 478.59 372.55 480.01 365.99 477.82 361.15
  C 475.60 356.26 470.60 354.71 465.07 354.53
  Q 460.82 354.39 453.05 354.47
  A 0.48 0.47 90.0 0 0 452.58 354.95
  L 452.58 392.67
  A 1.17 1.17 0.0 0 0 453.75 393.84
  L 456.70 393.84
  A 0.99 0.99 0.0 0 0 457.69 392.85
  L 457.69 378.97
  A 1.25 1.25 0.0 0 1 458.94 377.72
  L 462.47 377.72
  A 2.57 2.56 -15.0 0 1 464.69 379.00
  L 472.75 392.95
  A 2.05 2.04 -15.0 0 0 474.52 393.97
  L 478.31 393.97
  A 0.57 0.57 0.0 0 0 478.81 393.12"
/>
<path stroke="#93a292" vector-effect="non-scaling-stroke" d="
  M 259.8646 362.4403
  A 16.10 15.70 -83.6 0 0 242.4678 376.6899
  A 16.10 15.70 -83.6 0 0 256.2754 394.4397
  A 16.10 15.70 -83.6 0 0 273.6722 380.1901
  A 16.10 15.70 -83.6 0 0 259.8646 362.4403"
/>
<path stroke="#93a292" vector-effect="non-scaling-stroke" d="
  M 310.94 378.45
  C 310.96 390.03 319.75 396.46 331.01 393.51
  A 1.07 0.77 11.3 0 0 331.28 393.39
  L 336.88 389.48
  A 0.45 0.45 0.0 0 1 337.59 389.92
  L 337.13 392.89
  A 0.82 0.82 0.0 0 0 337.94 393.84
  L 341.81 393.84
  A 0.61 0.60 88.6 0 0 342.41 393.20
  Q 342.30 391.00 342.28 378.40
  Q 342.26 365.79 342.36 363.59
  A 0.61 0.60 -88.7 0 0 341.76 362.95
  L 337.89 362.97
  A 0.82 0.82 0.0 0 0 337.08 363.92
  L 337.55 366.89
  A 0.45 0.45 0.0 0 1 336.84 367.33
  L 331.23 363.44
  A 1.07 0.77 -11.5 0 0 330.96 363.32
  C 319.70 360.40 310.92 366.86 310.94 378.45"
/>
<path stroke="#93a292" vector-effect="non-scaling-stroke" d="
  M 356.01 365.72
  L 356.25 364.15
  A 1.07 1.05 -85.6 0 0 355.21 362.92
  L 352.08 362.92
  A 0.93 0.92 -90.0 0 0 351.16 363.85
  L 351.16 392.84
  A 1.06 1.05 90.0 0 0 352.21 393.90
  L 355.24 393.90
  A 1.18 1.17 -1.6 0 0 356.42 392.66
  Q 356.00 384.50 356.47 375.53
  C 356.82 368.76 361.97 365.62 368.40 367.34
  C 372.37 368.41 373.79 373.00 373.87 376.58
  Q 374.05 384.30 373.84 392.56
  A 1.35 1.34 0.6 0 0 375.19 393.93
  L 377.79 393.93
  A 1.20 1.20 0.0 0 0 378.99 392.75
  Q 379.10 386.34 378.93 375.51
  C 378.77 365.69 371.04 360.09 361.66 363.26
  C 359.74 363.91 358.27 365.22 356.79 366.22
  A 0.51 0.50 77.5 0 1 356.01 365.72"
/>
<path stroke="#93a292" vector-effect="non-scaling-stroke" d="
  M 392.01 365.73
  L 392.25 364.16
  A 1.07 1.05 -85.6 0 0 391.21 362.93
  L 388.08 362.94
  A 0.93 0.92 89.9 0 0 387.16 363.87
  L 387.19 392.84
  A 1.06 1.05 89.9 0 0 388.24 393.90
  L 391.27 393.90
  A 1.18 1.17 -1.7 0 0 392.45 392.66
  Q 392.02 384.50 392.48 375.54
  C 392.82 368.77 397.97 365.63 404.40 367.34
  C 408.37 368.41 409.79 372.99 409.87 376.57
  Q 410.06 384.29 409.86 392.54
  A 1.35 1.34 0.6 0 0 411.21 393.91
  L 413.81 393.91
  A 1.20 1.20 0.0 0 0 415.00 392.73
  Q 415.11 386.32 414.93 375.50
  C 414.76 365.68 407.03 360.09 397.66 363.27
  C 395.74 363.92 394.27 365.23 392.79 366.23
  A 0.51 0.50 77.5 0 1 392.01 365.73"
/>
<path stroke="#93a292" vector-effect="non-scaling-stroke" d="
  M 502.0231 362.4141
  A 16.10 15.71 -84.5 0 0 484.8423 376.9343
  A 16.10 15.71 -84.5 0 0 498.9369 394.4659
  A 16.10 15.71 -84.5 0 0 516.1177 379.9457
  A 16.10 15.71 -84.5 0 0 502.0231 362.4141"
/>
<path stroke="#93a292" vector-effect="non-scaling-stroke" d="
  M 583.32 379.74
  C 584.11 369.39 577.94 362.07 567.45 362.56
  Q 560.32 362.90 556.25 368.48
  C 552.50 373.62 552.31 382.35 555.92 387.70
  C 562.42 397.35 576.82 396.76 582.45 385.88
  A 1.23 1.22 9.9 0 0 581.20 384.11
  L 579.01 384.40
  A 3.86 3.84 -78.1 0 0 576.21 386.24
  Q 573.31 391.10 566.10 389.75
  A 9.32 9.29 -12.2 0 1 560.23 385.98
  L 558.84 384.01
  A 2.37 2.37 0.0 0 1 560.78 380.27
  L 582.75 380.27
  A 0.57 0.57 0.0 0 0 583.32 379.74"
/>
<path stroke="#93a292" vector-effect="non-scaling-stroke" d="
  M 595.56 366.44
  L 595.22 363.89
  A 1.22 1.21 86.2 0 0 594.02 362.83
  L 591.16 362.83
  A 1.19 1.19 0.0 0 0 589.97 364.02
  L 589.97 392.47
  A 1.56 1.56 0.0 0 0 591.53 394.03
  L 593.35 394.03
  A 1.65 1.65 0.0 0 0 595.00 392.41
  Q 595.20 382.11 595.22 376.27
  C 595.26 369.82 599.08 368.56 604.26 367.31
  A 1.29 1.29 0.0 0 0 605.10 366.62
  Q 605.66 365.42 604.83 363.19
  A 0.93 0.91 -9.9 0 0 603.96 362.59
  C 599.97 362.56 598.78 363.96 596.48 366.70
  A 0.52 0.52 0.0 0 1 595.56 366.44"
/>
<path stroke="#93a292" vector-effect="non-scaling-stroke" d="
  M 639.11 379.74
  C 639.90 369.39 633.73 362.07 623.24 362.56
  Q 616.11 362.90 612.04 368.48
  C 608.29 373.62 608.10 382.35 611.71 387.70
  C 618.21 397.35 632.61 396.76 638.24 385.88
  A 1.23 1.22 9.9 0 0 636.99 384.11
  L 634.80 384.40
  A 3.86 3.83 -78.1 0 0 632.00 386.24
  Q 629.10 391.10 621.89 389.75
  A 9.31 9.29 -12.2 0 1 616.02 385.98
  L 614.63 384.01
  A 2.37 2.37 0.0 0 1 616.57 380.27
  L 638.54 380.27
  A 0.57 0.57 0.0 0 0 639.11 379.74"
/>
<path stroke="#93a292" vector-effect="non-scaling-stroke" d="
  M 235.62 364.06
  A 1.33 1.33 0.0 0 0 234.29 362.73
  L 231.85 362.73
  A 1.33 1.33 0.0 0 0 230.52 364.06
  L 230.52 392.50
  A 1.33 1.33 0.0 0 0 231.85 393.83
  L 234.29 393.83
  A 1.33 1.33 0.0 0 0 235.62 392.50
  L 235.62 364.06"
/>
<path stroke="#93a292" vector-effect="non-scaling-stroke" d="
  M 292.23 388.01
  L 282.92 364.06
  A 2.06 2.06 0.0 0 0 281.00 362.75
  L 279.14 362.75
  A 1.27 1.27 0.0 0 0 277.95 364.48
  L 288.96 392.78
  A 1.18 1.17 -85.6 0 0 289.48 393.39
  C 291.24 394.37 295.09 394.79 296.00 392.52
  Q 296.42 391.48 306.82 364.93
  A 1.74 1.73 10.6 0 0 305.20 362.57
  L 304.77 362.57
  A 3.60 3.59 10.0 0 0 301.39 364.93
  Q 298.73 372.28 294.65 383.40
  Q 293.84 385.61 292.42 388.02
  A 0.11 0.10 -41.3 0 1 292.23 388.01"
/>
<path stroke="#93a292" vector-effect="non-scaling-stroke" d="
  M 428.2749 364.0256
  A 1.13 1.13 0.0 0 0 427.1429 362.8975
  L 424.2829 362.9025
  A 1.13 1.13 0.0 0 0 423.1549 364.0345
  L 423.2051 392.7944
  A 1.13 1.13 0.0 0 0 424.3371 393.9225
  L 427.1971 393.9175
  A 1.13 1.13 0.0 0 0 428.3251 392.7855
  L 428.2749 364.0256"
/>
<path stroke="#93a292" vector-effect="non-scaling-stroke" d="
  M 534.62 387.99
  L 525.33 364.07
  A 2.06 2.05 -10.6 0 0 523.41 362.76
  L 521.55 362.76
  A 1.27 1.27 0.0 0 0 520.36 364.48
  L 531.35 392.76
  A 1.18 1.17 -85.6 0 0 531.87 393.36
  C 533.63 394.34 537.47 394.77 538.38 392.50
  Q 538.80 391.46 549.20 364.94
  A 1.73 1.73 0.0 0 0 547.58 362.58
  L 547.15 362.58
  A 3.60 3.58 10.0 0 0 543.78 364.94
  Q 541.12 372.28 537.04 383.39
  Q 536.23 385.60 534.81 388.00
  A 0.11 0.10 -41.3 0 1 534.62 387.99"
/>
<path stroke="#93a292" vector-effect="non-scaling-stroke" d="
  M 457.65 359.69
  L 457.77 372.73
  A 0.93 0.93 0.0 0 0 458.71 373.65
  L 465.90 373.59
  A 7.74 6.59 -0.5 0 0 473.58 366.93
  L 473.56 365.21
  A 7.74 6.59 -0.5 0 0 465.76 358.69
  L 458.58 358.75
  A 0.93 0.93 0.0 0 0 457.65 359.69"
/>
<path stroke="#93a292" vector-effect="non-scaling-stroke" d="
  M 258.3441 366.7735
  A 11.63 10.56 -88.6 0 0 247.5032 378.1420
  A 11.63 10.56 -88.6 0 0 257.7759 390.0265
  A 11.63 10.56 -88.6 0 0 268.6168 378.6580
  A 11.63 10.56 -88.6 0 0 258.3441 366.7735"
/>
<path stroke="#93a292" vector-effect="non-scaling-stroke" d="
  M 326.6000 366.8400
  A 11.57 10.56 -90.0 0 0 316.0400 378.4100
  A 11.57 10.56 -90.0 0 0 326.6000 389.9800
  A 11.57 10.56 -90.0 0 0 337.1600 378.4100
  A 11.57 10.56 -90.0 0 0 326.6000 366.8400"
/>
<path stroke="#93a292" vector-effect="non-scaling-stroke" d="
  M 500.7444 366.7635
  A 11.64 10.58 -88.6 0 0 489.8832 378.1415
  A 11.64 10.58 -88.6 0 0 500.1756 390.0365
  A 11.64 10.58 -88.6 0 0 511.0368 378.6585
  A 11.64 10.58 -88.6 0 0 500.7444 366.7635"
/>
<path stroke="#93a292" vector-effect="non-scaling-stroke" d="
  M 559.57 376.20
  L 577.43 376.20
  A 0.56 0.56 0.0 0 0 577.99 375.64
  L 577.99 375.45
  A 8.96 8.61 0.0 0 0 569.03 366.84
  L 567.97 366.84
  A 8.96 8.61 0.0 0 0 559.01 375.45
  L 559.01 375.64
  A 0.56 0.56 0.0 0 0 559.57 376.20"
/>
<path stroke="#93a292" vector-effect="non-scaling-stroke" d="
  M 615.35 376.23
  L 633.19 376.23
  A 0.58 0.58 0.0 0 0 633.77 375.65
  L 633.77 375.46
  A 9.07 8.63 -0.0 0 0 624.70 366.83
  L 623.84 366.83
  A 9.07 8.63 0.0 0 0 614.77 375.46
  L 614.77 375.65
  A 0.58 0.58 0.0 0 0 615.35 376.23"
/>
</g>
<path fill="#5c9d3c" d="
  M 139.23 216.38
  L 115.19 216.31
  Q 113.44 216.10 111.74 215.98
  Q 109.64 215.82 108.33 215.52
  Q 75.67 208.18 54.22 185.02
  C 16.15 143.93 16.70 80.51 56.52 40.39
  Q 75.41 21.36 102.94 13.61
  Q 109.63 11.73 117.24 11.49
  Q 128.83 11.13 141.26 11.50
  Q 147.56 11.69 151.18 12.45
  Q 162.93 14.92 176.31 21.51
  C 201.07 33.69 219.79 56.69 227.98 82.74
  C 237.95 114.42 232.15 148.54 212.59 175.53
  Q 193.19 202.30 159.51 213.19
  Q 150.37 216.14 146.29 216.16
  Q 142.88 216.18 139.23 216.38
  Z"
/>
<path fill="#604023" d="
  M 139.23 216.38
  L 139.24 333.90
  L 115.19 333.88
  L 115.19 216.31
  L 139.23 216.38
  Z"
/>
<ellipse fill="#000000" cx="0.00" cy="0.00" transform="translate(705.33,233.31) rotate(-0.5)" rx="8.94" ry="8.08"/>
<path fill="#000000" d="
  M 372.94 289.21
  Q 372.75 289.29 372.07 290.55
  C 370.24 293.95 363.90 295.83 360.00 296.08
  C 334.17 297.73 329.32 256.93 350.33 247.64
  Q 360.81 242.99 370.99 250.01
  Q 372.02 250.72 372.66 251.93
  A 0.68 0.68 0.0 0 0 373.95 251.61
  L 373.95 231.66
  A 1.08 1.07 90.0 0 1 375.02 230.58
  L 388.20 230.58
  A 0.68 0.68 0.0 0 1 388.88 231.26
  L 388.88 294.90
  A 0.57 0.56 -0.0 0 1 388.31 295.46
  L 375.03 295.46
  A 1.16 1.15 0.0 0 1 373.87 294.31
  L 373.89 289.82
  A 0.67 0.67 0.0 0 0 372.94 289.21
  Z
  M 363.1888 258.8200
  A 12.17 10.79 -90.1 0 0 352.4200 271.0088
  A 12.17 10.79 -90.1 0 0 363.2312 283.1600
  A 12.17 10.79 -90.1 0 0 374.0000 270.9712
  A 12.17 10.79 -90.1 0 0 363.1888 258.8200
  Z"
/>
<path fill="#284626" d="
  M 115.19 333.88
  L 139.24 333.90
  L 1200.00 333.93
  L 1200.00 415.26
  Q 1200.21 417.33 1196.84 417.11
  Q 1193.21 416.86 1193.14 416.86
  Q 452.43 416.84 87.89 416.85
  C 83.39 416.85 79.76 417.76 75.68 417.33
  Q 71.52 416.89 66.78 416.88
  Q 12.02 416.79 2.88 417.04
  Q 2.69 417.05 1.12 417.12
  A 0.65 0.64 -10.1 0 1 0.48 416.68
  L 0.00 415.27
  L 0.00 233.62
  L 0.35 232.86
  A 0.47 0.46 11.4 0 1 0.78 232.58
  L 81.52 232.58
  A 0.73 0.72 90.0 0 1 82.24 233.31
  L 82.24 332.95
  A 0.95 0.95 0.0 0 0 83.20 333.90
  L 115.19 333.88
  Z
  M 233.6943 350.9539
  A 3.48 3.12 -82.0 0 0 230.1204 353.9658
  A 3.48 3.12 -82.0 0 0 232.7257 357.8461
  A 3.48 3.12 -82.0 0 0 236.2996 354.8342
  A 3.48 3.12 -82.0 0 0 233.6943 350.9539
  Z
  M 426.2875 350.9845
  A 3.46 3.22 -81.9 0 0 422.6121 353.9563
  A 3.46 3.22 -81.9 0 0 425.3125 357.8355
  A 3.46 3.22 -81.9 0 0 428.9879 354.8637
  A 3.46 3.22 -81.9 0 0 426.2875 350.9845
  Z
  M 223.19 372.67
  L 204.72 372.75
  A 2.37 2.36 3.9 0 0 202.39 374.77
  L 202.37 374.94
  A 1.61 1.61 0.0 0 0 203.97 376.74
  L 217.73 376.71
  A 0.85 0.85 0.0 0 1 218.56 377.73
  C 216.38 388.24 206.85 392.36 197.70 387.90
  C 188.12 383.23 187.22 366.73 196.88 360.88
  Q 204.06 356.52 212.00 360.68
  A 5.72 5.55 80.7 0 1 213.42 361.73
  C 216.46 364.80 217.73 366.71 221.68 366.06
  A 0.63 0.63 0.0 0 0 222.18 365.25
  C 219.51 356.89 209.73 353.09 201.69 354.24
  C 186.91 356.35 179.75 374.13 188.75 386.30
  C 194.67 394.29 204.94 396.30 213.71 391.96
  Q 223.84 386.95 223.90 373.39
  A 0.71 0.71 0.0 0 0 223.19 372.67
  Z
  M 478.81 393.12
  L 470.28 378.36
  A 0.76 0.75 -29.2 0 1 470.58 377.32
  Q 472.96 376.05 474.11 375.34
  C 478.59 372.55 480.01 365.99 477.82 361.15
  C 475.60 356.26 470.60 354.71 465.07 354.53
  Q 460.82 354.39 453.05 354.47
  A 0.48 0.47 90.0 0 0 452.58 354.95
  L 452.58 392.67
  A 1.17 1.17 0.0 0 0 453.75 393.84
  L 456.70 393.84
  A 0.99 0.99 0.0 0 0 457.69 392.85
  L 457.69 378.97
  A 1.25 1.25 0.0 0 1 458.94 377.72
  L 462.47 377.72
  A 2.57 2.56 -15.0 0 1 464.69 379.00
  L 472.75 392.95
  A 2.05 2.04 -15.0 0 0 474.52 393.97
  L 478.31 393.97
  A 0.57 0.57 0.0 0 0 478.81 393.12
  Z
  M 259.8646 362.4403
  A 16.10 15.70 -83.6 0 0 242.4678 376.6899
  A 16.10 15.70 -83.6 0 0 256.2754 394.4397
  A 16.10 15.70 -83.6 0 0 273.6722 380.1901
  A 16.10 15.70 -83.6 0 0 259.8646 362.4403
  Z
  M 310.94 378.45
  C 310.96 390.03 319.75 396.46 331.01 393.51
  A 1.07 0.77 11.3 0 0 331.28 393.39
  L 336.88 389.48
  A 0.45 0.45 0.0 0 1 337.59 389.92
  L 337.13 392.89
  A 0.82 0.82 0.0 0 0 337.94 393.84
  L 341.81 393.84
  A 0.61 0.60 88.6 0 0 342.41 393.20
  Q 342.30 391.00 342.28 378.40
  Q 342.26 365.79 342.36 363.59
  A 0.61 0.60 -88.7 0 0 341.76 362.95
  L 337.89 362.97
  A 0.82 0.82 0.0 0 0 337.08 363.92
  L 337.55 366.89
  A 0.45 0.45 0.0 0 1 336.84 367.33
  L 331.23 363.44
  A 1.07 0.77 -11.5 0 0 330.96 363.32
  C 319.70 360.40 310.92 366.86 310.94 378.45
  Z
  M 356.01 365.72
  L 356.25 364.15
  A 1.07 1.05 -85.6 0 0 355.21 362.92
  L 352.08 362.92
  A 0.93 0.92 -90.0 0 0 351.16 363.85
  L 351.16 392.84
  A 1.06 1.05 90.0 0 0 352.21 393.90
  L 355.24 393.90
  A 1.18 1.17 -1.6 0 0 356.42 392.66
  Q 356.00 384.50 356.47 375.53
  C 356.82 368.76 361.97 365.62 368.40 367.34
  C 372.37 368.41 373.79 373.00 373.87 376.58
  Q 374.05 384.30 373.84 392.56
  A 1.35 1.34 0.6 0 0 375.19 393.93
  L 377.79 393.93
  A 1.20 1.20 0.0 0 0 378.99 392.75
  Q 379.10 386.34 378.93 375.51
  C 378.77 365.69 371.04 360.09 361.66 363.26
  C 359.74 363.91 358.27 365.22 356.79 366.22
  A 0.51 0.50 77.5 0 1 356.01 365.72
  Z
  M 392.01 365.73
  L 392.25 364.16
  A 1.07 1.05 -85.6 0 0 391.21 362.93
  L 388.08 362.94
  A 0.93 0.92 89.9 0 0 387.16 363.87
  L 387.19 392.84
  A 1.06 1.05 89.9 0 0 388.24 393.90
  L 391.27 393.90
  A 1.18 1.17 -1.7 0 0 392.45 392.66
  Q 392.02 384.50 392.48 375.54
  C 392.82 368.77 397.97 365.63 404.40 367.34
  C 408.37 368.41 409.79 372.99 409.87 376.57
  Q 410.06 384.29 409.86 392.54
  A 1.35 1.34 0.6 0 0 411.21 393.91
  L 413.81 393.91
  A 1.20 1.20 0.0 0 0 415.00 392.73
  Q 415.11 386.32 414.93 375.50
  C 414.76 365.68 407.03 360.09 397.66 363.27
  C 395.74 363.92 394.27 365.23 392.79 366.23
  A 0.51 0.50 77.5 0 1 392.01 365.73
  Z
  M 502.0231 362.4141
  A 16.10 15.71 -84.5 0 0 484.8423 376.9343
  A 16.10 15.71 -84.5 0 0 498.9369 394.4659
  A 16.10 15.71 -84.5 0 0 516.1177 379.9457
  A 16.10 15.71 -84.5 0 0 502.0231 362.4141
  Z
  M 583.32 379.74
  C 584.11 369.39 577.94 362.07 567.45 362.56
  Q 560.32 362.90 556.25 368.48
  C 552.50 373.62 552.31 382.35 555.92 387.70
  C 562.42 397.35 576.82 396.76 582.45 385.88
  A 1.23 1.22 9.9 0 0 581.20 384.11
  L 579.01 384.40
  A 3.86 3.84 -78.1 0 0 576.21 386.24
  Q 573.31 391.10 566.10 389.75
  A 9.32 9.29 -12.2 0 1 560.23 385.98
  L 558.84 384.01
  A 2.37 2.37 0.0 0 1 560.78 380.27
  L 582.75 380.27
  A 0.57 0.57 0.0 0 0 583.32 379.74
  Z
  M 595.56 366.44
  L 595.22 363.89
  A 1.22 1.21 86.2 0 0 594.02 362.83
  L 591.16 362.83
  A 1.19 1.19 0.0 0 0 589.97 364.02
  L 589.97 392.47
  A 1.56 1.56 0.0 0 0 591.53 394.03
  L 593.35 394.03
  A 1.65 1.65 0.0 0 0 595.00 392.41
  Q 595.20 382.11 595.22 376.27
  C 595.26 369.82 599.08 368.56 604.26 367.31
  A 1.29 1.29 0.0 0 0 605.10 366.62
  Q 605.66 365.42 604.83 363.19
  A 0.93 0.91 -9.9 0 0 603.96 362.59
  C 599.97 362.56 598.78 363.96 596.48 366.70
  A 0.52 0.52 0.0 0 1 595.56 366.44
  Z
  M 639.11 379.74
  C 639.90 369.39 633.73 362.07 623.24 362.56
  Q 616.11 362.90 612.04 368.48
  C 608.29 373.62 608.10 382.35 611.71 387.70
  C 618.21 397.35 632.61 396.76 638.24 385.88
  A 1.23 1.22 9.9 0 0 636.99 384.11
  L 634.80 384.40
  A 3.86 3.83 -78.1 0 0 632.00 386.24
  Q 629.10 391.10 621.89 389.75
  A 9.31 9.29 -12.2 0 1 616.02 385.98
  L 614.63 384.01
  A 2.37 2.37 0.0 0 1 616.57 380.27
  L 638.54 380.27
  A 0.57 0.57 0.0 0 0 639.11 379.74
  Z
  M 235.62 364.06
  A 1.33 1.33 0.0 0 0 234.29 362.73
  L 231.85 362.73
  A 1.33 1.33 0.0 0 0 230.52 364.06
  L 230.52 392.50
  A 1.33 1.33 0.0 0 0 231.85 393.83
  L 234.29 393.83
  A 1.33 1.33 0.0 0 0 235.62 392.50
  L 235.62 364.06
  Z
  M 292.23 388.01
  L 282.92 364.06
  A 2.06 2.06 0.0 0 0 281.00 362.75
  L 279.14 362.75
  A 1.27 1.27 0.0 0 0 277.95 364.48
  L 288.96 392.78
  A 1.18 1.17 -85.6 0 0 289.48 393.39
  C 291.24 394.37 295.09 394.79 296.00 392.52
  Q 296.42 391.48 306.82 364.93
  A 1.74 1.73 10.6 0 0 305.20 362.57
  L 304.77 362.57
  A 3.60 3.59 10.0 0 0 301.39 364.93
  Q 298.73 372.28 294.65 383.40
  Q 293.84 385.61 292.42 388.02
  A 0.11 0.10 -41.3 0 1 292.23 388.01
  Z
  M 428.2749 364.0256
  A 1.13 1.13 0.0 0 0 427.1429 362.8975
  L 424.2829 362.9025
  A 1.13 1.13 0.0 0 0 423.1549 364.0345
  L 423.2051 392.7944
  A 1.13 1.13 0.0 0 0 424.3371 393.9225
  L 427.1971 393.9175
  A 1.13 1.13 0.0 0 0 428.3251 392.7855
  L 428.2749 364.0256
  Z
  M 534.62 387.99
  L 525.33 364.07
  A 2.06 2.05 -10.6 0 0 523.41 362.76
  L 521.55 362.76
  A 1.27 1.27 0.0 0 0 520.36 364.48
  L 531.35 392.76
  A 1.18 1.17 -85.6 0 0 531.87 393.36
  C 533.63 394.34 537.47 394.77 538.38 392.50
  Q 538.80 391.46 549.20 364.94
  A 1.73 1.73 0.0 0 0 547.58 362.58
  L 547.15 362.58
  A 3.60 3.58 10.0 0 0 543.78 364.94
  Q 541.12 372.28 537.04 383.39
  Q 536.23 385.60 534.81 388.00
  A 0.11 0.10 -41.3 0 1 534.62 387.99
  Z"
/>
<path fill="#000000" d="
  M 924.26 294.24
  A 0.70 0.70 0.0 0 1 923.76 295.44
  L 909.10 295.44
  A 2.70 2.68 67.3 0 1 907.20 294.65
  L 903.94 291.40
  A 2.69 2.69 0.0 0 0 900.38 291.17
  C 894.42 295.79 884.69 297.04 877.48 296.09
  C 866.74 294.67 858.28 288.12 858.83 276.65
  C 859.24 268.19 863.78 264.00 870.38 259.72
  A 0.97 0.97 0.0 0 0 870.59 258.28
  C 865.02 251.63 866.11 241.39 873.32 236.34
  C 878.65 232.61 886.24 232.06 892.08 233.37
  C 898.54 234.82 905.63 241.05 904.45 248.33
  A 0.67 0.67 0.0 0 1 903.79 248.89
  L 891.36 248.89
  A 0.40 0.39 80.6 0 1 890.99 248.62
  C 890.72 247.81 890.49 246.74 890.20 246.35
  Q 887.25 242.36 883.33 244.74
  C 878.32 247.80 883.02 253.72 885.91 256.60
  Q 893.44 264.08 900.54 270.89
  A 0.41 0.41 0.0 0 0 901.18 270.80
  L 905.24 263.77
  A 0.71 0.69 14.6 0 1 905.85 263.42
  L 919.82 263.42
  A 0.49 0.49 0.0 0 1 920.24 264.16
  L 911.37 279.52
  A 1.76 1.76 0.0 0 0 911.65 281.64
  L 924.26 294.24
  Z
  M 891.72 279.66
  L 880.70 268.64
  A 1.83 1.83 0.0 0 0 878.47 268.37
  Q 873.17 271.55 873.36 277.22
  C 873.55 282.66 879.94 284.71 884.51 284.26
  Q 888.15 283.89 891.35 282.18
  A 1.59 1.59 0.0 0 0 891.72 279.66
  Z"
/>
<path fill="#000000" d="
  M 203.13 260.70
  L 234.15 260.70
  A 0.66 0.65 -1.8 0 1 234.81 261.31
  Q 235.07 265.54 234.95 270.79
  Q 234.84 275.80 233.81 277.72
  C 231.94 281.19 230.11 284.53 227.65 286.83
  Q 215.22 298.47 198.67 295.25
  C 179.85 291.59 170.34 274.03 174.97 255.98
  C 179.29 239.16 194.79 230.82 211.45 233.70
  Q 228.59 236.67 233.64 252.67
  A 0.55 0.54 -8.9 0 1 233.12 253.38
  L 218.80 253.38
  A 2.83 2.81 71.0 0 1 216.57 252.28
  C 213.89 248.79 209.58 247.05 205.11 247.11
  Q 193.08 247.27 189.68 259.46
  Q 189.13 261.42 189.29 266.30
  C 189.63 276.82 196.93 283.09 207.72 282.60
  C 213.25 282.34 219.39 278.47 220.82 272.72
  A 0.82 0.81 6.9 0 0 220.02 271.71
  L 203.15 271.71
  A 0.85 0.85 0.0 0 1 202.30 270.86
  L 202.30 261.53
  A 0.83 0.83 0.0 0 1 203.13 260.70
  Z"
/>
<path fill="#000000" d="
  M 961.96 264.61
  C 961.98 273.10 966.08 280.20 974.26 281.94
  C 980.24 283.21 986.63 280.81 989.66 275.30
  A 1.83 1.82 -75.6 0 1 991.26 274.35
  L 1006.21 274.35
  A 0.46 0.45 -81.4 0 1 1006.64 274.94
  C 1001.95 290.71 986.85 298.53 971.07 295.28
  C 955.79 292.12 946.76 280.23 946.72 264.65
  C 946.68 249.08 955.65 237.14 970.91 233.90
  C 986.67 230.57 1001.81 238.31 1006.59 254.05
  A 0.46 0.45 81.1 0 1 1006.16 254.64
  L 991.21 254.72
  A 1.83 1.82 75.3 0 1 989.60 253.78
  C 986.54 248.29 980.14 245.92 974.17 247.22
  C 966.00 249.00 961.94 256.13 961.96 264.61
  Z"
/>
<path fill="#000000" d="
  M 531.07 234.45
  A 0.61 0.61 0.0 0 1 531.68 233.84
  L 556.00 233.89
  A 30.39 29.58 0.1 0 1 586.34 263.52
  L 586.34 265.92
  A 30.39 29.58 0.1 0 1 555.90 295.45
  L 531.58 295.40
  A 0.61 0.61 0.0 0 1 530.97 294.79
  L 531.07 234.45
  Z
  M 546.12 247.73
  L 546.00 281.45
  A 1.10 1.10 0.0 0 0 547.10 282.55
  L 554.15 282.57
  A 16.89 16.68 0.2 0 0 571.10 265.95
  L 571.10 263.39
  A 16.89 16.68 0.2 0 0 554.27 246.65
  L 547.22 246.63
  A 1.10 1.10 0.0 0 0 546.12 247.73
  Z"
/>
<path fill="#000000" d="
  M 240.00 271.00
  C 239.99 258.17 246.84 247.33 259.99 245.85
  Q 265.53 245.23 271.98 248.71
  Q 272.01 248.73 272.04 248.75
  L 276.03 252.35
  A 0.61 0.60 -73.6 0 0 277.03 251.80
  L 276.41 247.77
  A 1.08 1.07 85.4 0 1 277.46 246.52
  L 291.10 246.51
  A 0.71 0.70 -89.2 0 1 291.80 247.24
  Q 291.72 249.94 291.73 270.98
  Q 291.73 292.02 291.82 294.72
  A 0.71 0.70 89.2 0 1 291.12 295.45
  L 277.48 295.45
  A 1.08 1.07 -85.4 0 1 276.42 294.20
  L 277.04 290.17
  A 0.61 0.60 73.5 0 0 276.04 289.62
  L 272.05 293.23
  Q 272.02 293.25 271.99 293.27
  Q 265.55 296.75 260.00 296.13
  C 246.85 294.66 240.00 283.82 240.00 271.00
  Z
  M 265.8201 258.8212
  A 12.17 10.80 -90.8 0 0 255.1911 271.1408
  A 12.17 10.80 -90.8 0 0 266.1599 283.1588
  A 12.17 10.80 -90.8 0 0 276.7889 270.8392
  A 12.17 10.80 -90.8 0 0 265.8201 258.8212
  Z"
/>
<path fill="#000000" d="
  M 443.86 279.17
  A 0.49 0.49 0.0 0 1 444.33 279.80
  Q 440.93 290.83 430.08 294.71
  C 423.60 297.03 415.12 296.61 408.84 293.20
  Q 397.93 287.25 396.74 273.50
  C 393.49 236.26 449.85 236.64 445.51 273.97
  A 0.70 0.69 3.2 0 1 444.82 274.58
  L 412.85 274.58
  A 1.05 1.04 -3.0 0 0 411.81 275.73
  C 412.46 281.80 417.68 284.73 423.62 283.62
  C 425.96 283.18 427.05 280.88 428.77 279.62
  A 2.31 2.30 26.7 0 1 430.14 279.17
  L 443.86 279.17
  Z
  M 412.07 266.29
  L 430.39 266.33
  A 0.05 0.05 0.0 0 0 430.44 266.28
  L 430.44 266.24
  A 9.07 8.29 0.1 0 0 421.39 257.93
  L 421.11 257.93
  A 9.07 8.29 0.1 0 0 412.02 266.20
  L 412.02 266.24
  A 0.05 0.05 0.0 0 0 412.07 266.29
  Z"
/>
<path fill="#000000" d="
  M 639.49 279.17
  A 0.49 0.49 0.0 0 1 639.96 279.80
  Q 636.56 290.83 625.71 294.71
  C 619.23 297.03 610.75 296.61 604.47 293.20
  Q 593.56 287.26 592.37 273.51
  C 589.12 236.27 645.47 236.64 641.14 273.97
  A 0.70 0.69 3.2 0 1 640.45 274.58
  L 608.48 274.58
  A 1.05 1.04 -3.0 0 0 607.44 275.73
  C 608.09 281.80 613.31 284.73 619.25 283.62
  C 621.59 283.18 622.68 280.88 624.40 279.62
  A 2.31 2.30 26.7 0 1 625.77 279.17
  L 639.49 279.17
  Z
  M 607.73 266.35
  L 625.91 266.29
  A 0.13 0.13 0.0 0 0 626.04 266.16
  L 626.04 266.09
  A 9.04 8.18 -0.2 0 0 616.98 257.94
  L 616.62 257.94
  A 9.04 8.18 -0.2 0 0 607.60 266.15
  L 607.60 266.22
  A 0.13 0.13 0.0 0 0 607.73 266.35
  Z"
/>
<path fill="#000000" d="
  M 687.51 262.52
  L 676.47 262.52
  A 1.92 1.91 -14.7 0 1 674.80 261.55
  C 672.49 257.47 668.46 255.75 664.37 257.68
  C 660.39 259.57 662.57 263.48 665.94 264.44
  Q 669.62 265.49 676.11 267.37
  C 683.12 269.41 688.63 273.08 688.90 280.53
  Q 689.07 284.90 686.93 288.19
  C 680.83 297.56 666.21 297.56 657.38 293.68
  C 651.66 291.17 647.63 286.53 646.70 280.25
  A 0.76 0.76 0.0 0 1 647.45 279.38
  L 660.35 279.38
  A 1.24 1.23 -12.3 0 1 661.47 280.09
  Q 664.41 286.52 671.64 284.63
  Q 675.55 283.61 674.39 279.80
  A 1.70 1.70 0.0 0 0 673.76 278.93
  C 670.32 276.50 665.19 275.66 660.90 274.59
  C 654.02 272.89 647.94 268.59 648.22 260.82
  C 648.76 245.54 670.33 242.64 680.29 248.77
  Q 686.86 252.81 688.52 261.30
  A 1.03 1.02 -5.5 0 1 687.51 262.52
  Z"
/>
<path fill="#000000" d="
  M 756.72 252.00
  A 0.61 0.61 0.0 0 0 757.71 251.45
  L 757.15 247.17
  A 0.62 0.61 -4.0 0 1 757.76 246.47
  L 771.51 246.47
  A 0.89 0.88 89.7 0 1 772.39 247.35
  Q 772.46 271.29 772.39 294.00
  C 772.35 307.15 766.58 316.54 753.49 319.19
  Q 750.22 319.86 743.81 319.37
  C 733.49 318.59 724.19 312.21 722.72 301.40
  A 0.83 0.83 0.0 0 1 723.54 300.46
  L 735.31 300.46
  A 3.25 3.25 0.0 0 1 738.15 302.13
  Q 739.29 304.17 740.51 304.84
  C 747.51 308.67 756.71 306.36 757.19 297.20
  Q 757.55 290.36 757.62 289.51
  A 0.35 0.35 0.0 0 0 757.02 289.25
  C 751.24 295.56 743.16 297.84 735.29 294.98
  C 713.98 287.24 715.90 248.63 740.00 245.97
  Q 747.66 245.12 753.53 249.46
  Q 753.67 249.56 756.72 252.00
  Z
  M 746.5363 258.8202
  A 12.17 10.81 -90.3 0 0 735.7901 271.0466
  A 12.17 10.81 -90.3 0 0 746.6637 283.1598
  A 12.17 10.81 -90.3 0 0 757.4099 270.9334
  A 12.17 10.81 -90.3 0 0 746.5363 258.8202
  Z"
/>
<path fill="#000000" d="
  M 1065.16 270.96
  Q 1065.16 292.00 1065.25 294.70
  A 0.71 0.70 89.1 0 1 1064.55 295.43
  L 1050.91 295.43
  A 1.08 1.07 -85.4 0 1 1049.85 294.18
  L 1050.47 290.15
  A 0.61 0.60 73.5 0 0 1049.47 289.60
  L 1045.48 293.21
  Q 1045.45 293.23 1045.42 293.25
  Q 1038.98 296.73 1033.43 296.11
  C 1020.28 294.64 1013.43 283.80 1013.42 270.98
  C 1013.42 258.15 1020.26 247.31 1033.41 245.83
  Q 1038.96 245.21 1045.40 248.68
  Q 1045.43 248.70 1045.46 248.72
  L 1049.46 252.33
  A 0.61 0.60 -73.6 0 0 1050.45 251.78
  L 1049.83 247.75
  A 1.08 1.07 85.4 0 1 1050.89 246.50
  L 1064.53 246.49
  A 0.71 0.70 -89.2 0 1 1065.23 247.22
  Q 1065.15 249.92 1065.16 270.96
  Z
  M 1039.2826 258.8307
  A 12.17 10.81 -90.6 0 0 1028.6006 271.1132
  A 12.17 10.81 -90.6 0 0 1039.5374 283.1693
  A 12.17 10.81 -90.6 0 0 1050.2194 270.8868
  A 12.17 10.81 -90.6 0 0 1039.2826 258.8307
  Z"
/>
<path fill="#000000" d="
  M 1157.29 279.17
  A 0.49 0.49 0.0 0 1 1157.76 279.80
  Q 1154.36 290.83 1143.51 294.71
  C 1137.03 297.03 1128.55 296.61 1122.27 293.20
  Q 1111.36 287.26 1110.17 273.51
  C 1106.92 236.26 1163.28 236.63 1158.94 273.97
  A 0.70 0.69 3.2 0 1 1158.25 274.58
  L 1126.28 274.58
  A 1.05 1.04 -3.0 0 0 1125.24 275.73
  C 1125.89 281.80 1131.11 284.73 1137.05 283.62
  C 1139.39 283.18 1140.48 280.88 1142.20 279.62
  A 2.31 2.30 26.7 0 1 1143.57 279.17
  L 1157.29 279.17
  Z
  M 1125.53 266.42
  L 1143.75 266.22
  A 0.10 0.10 0.0 0 0 1143.85 266.12
  L 1143.85 266.06
  A 9.06 8.24 -0.6 0 0 1134.71 257.92
  L 1134.41 257.92
  A 9.06 8.24 -0.6 0 0 1125.43 266.26
  L 1125.43 266.32
  A 0.10 0.10 0.0 0 0 1125.53 266.42
  Z"
/>
<path fill="#000000" d="
  M 317.46 253.60
  A 0.30 0.30 0.0 0 0 317.98 253.80
  C 322.02 249.37 325.57 246.43 331.87 245.98
  A 0.94 0.93 -2.2 0 1 332.88 246.92
  L 332.86 261.06
  A 0.79 0.79 0.0 0 1 332.04 261.85
  C 325.41 261.71 317.91 262.09 317.61 270.72
  Q 317.17 283.02 317.60 294.55
  A 0.87 0.87 0.0 0 1 316.72 295.45
  L 303.26 295.43
  A 0.89 0.88 0.1 0 1 302.37 294.55
  L 302.44 247.34
  A 0.95 0.95 0.0 0 1 303.39 246.39
  L 315.97 246.40
  A 1.50 1.50 0.0 0 1 317.47 247.91
  L 317.46 253.60
  Z"
/>
<path fill="#000000" d="
  M 469.41 251.80
  L 473.51 248.58
  A 0.77 0.44 -3.1 0 1 473.65 248.49
  Q 480.97 244.66 488.98 246.75
  C 498.62 249.26 502.38 258.15 502.34 267.52
  Q 502.26 287.58 502.42 294.59
  A 0.82 0.81 -0.7 0 1 501.60 295.42
  L 488.04 295.42
  A 0.80 0.80 0.0 0 1 487.24 294.61
  Q 487.42 282.07 487.35 269.76
  C 487.33 266.61 486.94 263.24 484.62 261.16
  C 478.23 255.45 468.88 259.28 468.72 268.31
  Q 468.54 278.66 468.69 295.05
  A 0.36 0.35 -0.8 0 1 468.33 295.41
  L 454.30 295.41
  A 0.68 0.67 0.0 0 1 453.62 294.74
  L 453.62 247.21
  A 0.78 0.78 0.0 0 1 454.40 246.43
  L 467.61 246.43
  A 0.94 0.93 -90.0 0 1 468.54 247.37
  L 468.54 251.38
  A 0.54 0.54 0.0 0 0 469.41 251.80
  Z"
/>
<path fill="#000000" d="
  M 798.77 251.82
  L 802.87 248.59
  A 0.77 0.44 -3.2 0 1 803.01 248.50
  Q 810.33 244.66 818.34 246.74
  C 827.99 249.24 831.77 258.13 831.74 267.51
  Q 831.68 287.58 831.85 294.59
  A 0.82 0.81 -0.7 0 1 831.03 295.42
  L 817.46 295.44
  A 0.80 0.80 0.0 0 1 816.66 294.63
  Q 816.83 282.08 816.74 269.77
  C 816.72 266.62 816.32 263.24 814.00 261.17
  C 807.60 255.46 798.25 259.30 798.10 268.34
  Q 797.93 278.69 798.10 295.09
  A 0.36 0.35 -0.8 0 1 797.74 295.45
  L 783.70 295.47
  A 0.68 0.67 -0.1 0 1 783.02 294.80
  L 782.97 247.25
  A 0.78 0.78 0.0 0 1 783.75 246.46
  L 796.96 246.45
  A 0.94 0.93 89.9 0 1 797.89 247.39
  L 797.90 251.40
  A 0.54 0.54 0.0 0 0 798.77 251.82
  Z"
/>
<path fill="#000000" d="
  M 1091.33 253.85
  C 1095.35 249.42 1098.89 246.48 1105.18 246.03
  A 0.94 0.93 -2.3 0 1 1106.19 246.96
  L 1106.19 261.08
  A 0.79 0.79 0.0 0 1 1105.38 261.87
  C 1098.76 261.74 1091.27 262.13 1090.98 270.75
  Q 1090.56 283.03 1091.00 294.54
  A 0.87 0.87 0.0 0 1 1090.13 295.44
  L 1076.69 295.44
  A 0.89 0.88 -0.0 0 1 1075.80 294.56
  L 1075.80 247.42
  A 0.95 0.95 0.0 0 1 1076.75 246.47
  L 1089.31 246.47
  A 1.50 1.50 0.0 0 1 1090.81 247.97
  L 1090.81 253.65
  A 0.30 0.30 0.0 0 0 1091.33 253.85
  Z"
/>
<rect fill="#000000" x="697.84" y="246.38" width="15.00" height="49.08" rx="0.83"/>
<ellipse fill="#fefefe" cx="0.00" cy="0.00" transform="translate(233.21,354.40) rotate(-82.0)" rx="3.48" ry="3.12"/>
<ellipse fill="#fefefe" cx="0.00" cy="0.00" transform="translate(425.80,354.41) rotate(-81.9)" rx="3.46" ry="3.22"/>
<path fill="#fefefe" d="
  M 223.19 372.67
  A 0.71 0.71 0.0 0 1 223.90 373.39
  Q 223.84 386.95 213.71 391.96
  C 204.94 396.30 194.67 394.29 188.75 386.30
  C 179.75 374.13 186.91 356.35 201.69 354.24
  C 209.73 353.09 219.51 356.89 222.18 365.25
  A 0.63 0.63 0.0 0 1 221.68 366.06
  C 217.73 366.71 216.46 364.80 213.42 361.73
  A 5.72 5.55 80.7 0 0 212.00 360.68
  Q 204.06 356.52 196.88 360.88
  C 187.22 366.73 188.12 383.23 197.70 387.90
  C 206.85 392.36 216.38 388.24 218.56 377.73
  A 0.85 0.85 0.0 0 0 217.73 376.71
  L 203.97 376.74
  A 1.61 1.61 0.0 0 1 202.37 374.94
  L 202.39 374.77
  A 2.37 2.36 3.9 0 1 204.72 372.75
  L 223.19 372.67
  Z"
/>
<path fill="#fefefe" d="
  M 478.81 393.12
  A 0.57 0.57 0.0 0 1 478.31 393.97
  L 474.52 393.97
  A 2.05 2.04 -15.0 0 1 472.75 392.95
  L 464.69 379.00
  A 2.57 2.56 -15.0 0 0 462.47 377.72
  L 458.94 377.72
  A 1.25 1.25 0.0 0 0 457.69 378.97
  L 457.69 392.85
  A 0.99 0.99 0.0 0 1 456.70 393.84
  L 453.75 393.84
  A 1.17 1.17 0.0 0 1 452.58 392.67
  L 452.58 354.95
  A 0.48 0.47 -90.0 0 1 453.05 354.47
  Q 460.82 354.39 465.07 354.53
  C 470.60 354.71 475.60 356.26 477.82 361.15
  C 480.01 365.99 478.59 372.55 474.11 375.34
  Q 472.96 376.05 470.58 377.32
  A 0.76 0.75 -29.2 0 0 470.28 378.36
  L 478.81 393.12
  Z
  M 457.65 359.69
  L 457.77 372.73
  A 0.93 0.93 0.0 0 0 458.71 373.65
  L 465.90 373.59
  A 7.74 6.59 -0.5 0 0 473.58 366.93
  L 473.56 365.21
  A 7.74 6.59 -0.5 0 0 465.76 358.69
  L 458.58 358.75
  A 0.93 0.93 0.0 0 0 457.65 359.69
  Z"
/>
<path fill="#284626" d="
  M 457.65 359.69
  A 0.93 0.93 0.0 0 1 458.58 358.75
  L 465.76 358.69
  A 7.74 6.59 -0.5 0 1 473.56 365.21
  L 473.58 366.93
  A 7.74 6.59 -0.5 0 1 465.90 373.59
  L 458.71 373.65
  A 0.93 0.93 0.0 0 1 457.77 372.73
  L 457.65 359.69
  Z"
/>
<path fill="#fefefe" d="
  M 259.8646 362.4403
  A 16.10 15.70 -83.6 0 1 273.6722 380.1901
  A 16.10 15.70 -83.6 0 1 256.2754 394.4397
  A 16.10 15.70 -83.6 0 1 242.4678 376.6899
  A 16.10 15.70 -83.6 0 1 259.8646 362.4403
  Z
  M 258.3441 366.7735
  A 11.63 10.56 -88.6 0 0 247.5032 378.1420
  A 11.63 10.56 -88.6 0 0 257.7759 390.0265
  A 11.63 10.56 -88.6 0 0 268.6168 378.6580
  A 11.63 10.56 -88.6 0 0 258.3441 366.7735
  Z"
/>
<path fill="#fefefe" d="
  M 342.28 378.40
  Q 342.30 391.00 342.41 393.20
  A 0.61 0.60 88.6 0 1 341.81 393.84
  L 337.94 393.84
  A 0.82 0.82 0.0 0 1 337.13 392.89
  L 337.59 389.92
  A 0.45 0.45 0.0 0 0 336.88 389.48
  L 331.28 393.39
  A 1.07 0.77 11.3 0 1 331.01 393.51
  C 319.75 396.46 310.96 390.03 310.94 378.45
  C 310.92 366.86 319.70 360.40 330.96 363.32
  A 1.07 0.77 -11.5 0 1 331.23 363.44
  L 336.84 367.33
  A 0.45 0.45 0.0 0 0 337.55 366.89
  L 337.08 363.92
  A 0.82 0.82 0.0 0 1 337.89 362.97
  L 341.76 362.95
  A 0.61 0.60 -88.7 0 1 342.36 363.59
  Q 342.26 365.79 342.28 378.40
  Z
  M 326.6000 366.8400
  A 11.57 10.56 -90.0 0 0 316.0400 378.4100
  A 11.57 10.56 -90.0 0 0 326.6000 389.9800
  A 11.57 10.56 -90.0 0 0 337.1600 378.4100
  A 11.57 10.56 -90.0 0 0 326.6000 366.8400
  Z"
/>
<path fill="#fefefe" d="
  M 356.79 366.22
  C 358.27 365.22 359.74 363.91 361.66 363.26
  C 371.04 360.09 378.77 365.69 378.93 375.51
  Q 379.10 386.34 378.99 392.75
  A 1.20 1.20 0.0 0 1 377.79 393.93
  L 375.19 393.93
  A 1.35 1.34 0.6 0 1 373.84 392.56
  Q 374.05 384.30 373.87 376.58
  C 373.79 373.00 372.37 368.41 368.40 367.34
  C 361.97 365.62 356.82 368.76 356.47 375.53
  Q 356.00 384.50 356.42 392.66
  A 1.18 1.17 -1.6 0 1 355.24 393.90
  L 352.21 393.90
  A 1.06 1.05 90.0 0 1 351.16 392.84
  L 351.16 363.85
  A 0.93 0.92 90.0 0 1 352.08 362.92
  L 355.21 362.92
  A 1.07 1.05 -85.6 0 1 356.25 364.15
  L 356.01 365.72
  A 0.51 0.50 77.5 0 0 356.79 366.22
  Z"
/>
<path fill="#fefefe" d="
  M 392.01 365.73
  A 0.51 0.50 77.5 0 0 392.79 366.23
  C 394.27 365.23 395.74 363.92 397.66 363.27
  C 407.03 360.09 414.76 365.68 414.93 375.50
  Q 415.11 386.32 415.00 392.73
  A 1.20 1.20 0.0 0 1 413.81 393.91
  L 411.21 393.91
  A 1.35 1.34 0.6 0 1 409.86 392.54
  Q 410.06 384.29 409.87 376.57
  C 409.79 372.99 408.37 368.41 404.40 367.34
  C 397.97 365.63 392.82 368.77 392.48 375.54
  Q 392.02 384.50 392.45 392.66
  A 1.18 1.17 -1.7 0 1 391.27 393.90
  L 388.24 393.90
  A 1.06 1.05 89.9 0 1 387.19 392.84
  L 387.16 363.87
  A 0.93 0.92 89.9 0 1 388.08 362.94
  L 391.21 362.93
  A 1.07 1.05 -85.6 0 1 392.25 364.16
  L 392.01 365.73
  Z"
/>
<path fill="#fefefe" d="
  M 502.0231 362.4141
  A 16.10 15.71 -84.5 0 1 516.1177 379.9457
  A 16.10 15.71 -84.5 0 1 498.9369 394.4659
  A 16.10 15.71 -84.5 0 1 484.8423 376.9343
  A 16.10 15.71 -84.5 0 1 502.0231 362.4141
  Z
  M 500.7444 366.7635
  A 11.64 10.58 -88.6 0 0 489.8832 378.1415
  A 11.64 10.58 -88.6 0 0 500.1756 390.0365
  A 11.64 10.58 -88.6 0 0 511.0368 378.6585
  A 11.64 10.58 -88.6 0 0 500.7444 366.7635
  Z"
/>
<path fill="#fefefe" d="
  M 583.32 379.74
  A 0.57 0.57 0.0 0 1 582.75 380.27
  L 560.78 380.27
  A 2.37 2.37 0.0 0 0 558.84 384.01
  L 560.23 385.98
  A 9.32 9.29 -12.2 0 0 566.10 389.75
  Q 573.31 391.10 576.21 386.24
  A 3.86 3.84 -78.1 0 1 579.01 384.40
  L 581.20 384.11
  A 1.23 1.22 9.9 0 1 582.45 385.88
  C 576.82 396.76 562.42 397.35 555.92 387.70
  C 552.31 382.35 552.50 373.62 556.25 368.48
  Q 560.32 362.90 567.45 362.56
  C 577.94 362.07 584.11 369.39 583.32 379.74
  Z
  M 559.57 376.20
  L 577.43 376.20
  A 0.56 0.56 0.0 0 0 577.99 375.64
  L 577.99 375.45
  A 8.96 8.61 0.0 0 0 569.03 366.84
  L 567.97 366.84
  A 8.96 8.61 0.0 0 0 559.01 375.45
  L 559.01 375.64
  A 0.56 0.56 0.0 0 0 559.57 376.20
  Z"
/>
<path fill="#fefefe" d="
  M 595.56 366.44
  A 0.52 0.52 0.0 0 0 596.48 366.70
  C 598.78 363.96 599.97 362.56 603.96 362.59
  A 0.93 0.91 -9.9 0 1 604.83 363.19
  Q 605.66 365.42 605.10 366.62
  A 1.29 1.29 0.0 0 1 604.26 367.31
  C 599.08 368.56 595.26 369.82 595.22 376.27
  Q 595.20 382.11 595.00 392.41
  A 1.65 1.65 0.0 0 1 593.35 394.03
  L 591.53 394.03
  A 1.56 1.56 0.0 0 1 589.97 392.47
  L 589.97 364.02
  A 1.19 1.19 0.0 0 1 591.16 362.83
  L 594.02 362.83
  A 1.22 1.21 86.2 0 1 595.22 363.89
  L 595.56 366.44
  Z"
/>
<path fill="#fefefe" d="
  M 639.11 379.74
  A 0.57 0.57 0.0 0 1 638.54 380.27
  L 616.57 380.27
  A 2.37 2.37 0.0 0 0 614.63 384.01
  L 616.02 385.98
  A 9.31 9.29 -12.2 0 0 621.89 389.75
  Q 629.10 391.10 632.00 386.24
  A 3.86 3.83 -78.1 0 1 634.80 384.40
  L 636.99 384.11
  A 1.23 1.22 9.9 0 1 638.24 385.88
  C 632.61 396.76 618.21 397.35 611.71 387.70
  C 608.10 382.35 608.29 373.62 612.04 368.48
  Q 616.11 362.90 623.24 362.56
  C 633.73 362.07 639.90 369.39 639.11 379.74
  Z
  M 615.35 376.23
  L 633.19 376.23
  A 0.58 0.58 0.0 0 0 633.77 375.65
  L 633.77 375.46
  A 9.07 8.63 -0.0 0 0 624.70 366.83
  L 623.84 366.83
  A 9.07 8.63 0.0 0 0 614.77 375.46
  L 614.77 375.65
  A 0.58 0.58 0.0 0 0 615.35 376.23
  Z"
/>
<rect fill="#fefefe" x="230.52" y="362.73" width="5.10" height="31.10" rx="1.33"/>
<path fill="#fefefe" d="
  M 292.23 388.01
  A 0.11 0.10 -41.3 0 0 292.42 388.02
  Q 293.84 385.61 294.65 383.40
  Q 298.73 372.28 301.39 364.93
  A 3.60 3.59 10.0 0 1 304.77 362.57
  L 305.20 362.57
  A 1.74 1.73 10.6 0 1 306.82 364.93
  Q 296.42 391.48 296.00 392.52
  C 295.09 394.79 291.24 394.37 289.48 393.39
  A 1.18 1.17 -85.6 0 1 288.96 392.78
  L 277.95 364.48
  A 1.27 1.27 0.0 0 1 279.14 362.75
  L 281.00 362.75
  A 2.06 2.06 0.0 0 1 282.92 364.06
  L 292.23 388.01
  Z"
/>
<rect fill="#fefefe" x="-2.56" y="-15.51" transform="translate(425.74,378.41) rotate(-0.1)" width="5.12" height="31.02" rx="1.13"/>
<path fill="#fefefe" d="
  M 534.62 387.99
  A 0.11 0.10 -41.3 0 0 534.81 388.00
  Q 536.23 385.60 537.04 383.39
  Q 541.12 372.28 543.78 364.94
  A 3.60 3.58 10.0 0 1 547.15 362.58
  L 547.58 362.58
  A 1.73 1.73 0.0 0 1 549.20 364.94
  Q 538.80 391.46 538.38 392.50
  C 537.47 394.77 533.63 394.34 531.87 393.36
  A 1.18 1.17 -85.6 0 1 531.35 392.76
  L 520.36 364.48
  A 1.27 1.27 0.0 0 1 521.55 362.76
  L 523.41 362.76
  A 2.06 2.05 -10.6 0 1 525.33 364.07
  L 534.62 387.99
  Z"
/>
<path fill="#284626" d="
  M 559.57 376.20
  A 0.56 0.56 0.0 0 1 559.01 375.64
  L 559.01 375.45
  A 8.96 8.61 -0.0 0 1 567.97 366.84
  L 569.03 366.84
  A 8.96 8.61 0.0 0 1 577.99 375.45
  L 577.99 375.64
  A 0.56 0.56 0.0 0 1 577.43 376.20
  L 559.57 376.20
  Z"
/>
<path fill="#284626" d="
  M 615.35 376.23
  A 0.58 0.58 0.0 0 1 614.77 375.65
  L 614.77 375.46
  A 9.07 8.63 0.0 0 1 623.84 366.83
  L 624.70 366.83
  A 9.07 8.63 0.0 0 1 633.77 375.46
  L 633.77 375.65
  A 0.58 0.58 0.0 0 1 633.19 376.23
  L 615.35 376.23
  Z"
/>
<ellipse fill="#284626" cx="0.00" cy="0.00" transform="translate(258.06,378.40) rotate(-88.6)" rx="11.63" ry="10.56"/>
<ellipse fill="#284626" cx="0.00" cy="0.00" transform="translate(326.60,378.41) rotate(-90.0)" rx="11.57" ry="10.56"/>
<ellipse fill="#284626" cx="0.00" cy="0.00" transform="translate(500.46,378.40) rotate(-88.6)" rx="11.64" ry="10.58"/>
</svg>
