<svg xmlns="http://www.w3.org/2000/svg" xmlns:xlink="http://www.w3.org/1999/xlink" width="500" zoomAndPan="magnify" viewBox="0 0 375 374.999991" height="500" preserveAspectRatio="xMidYMid meet" version="1.0"><defs><g/><clipPath id="055e98bb15"><path d="M 36.011719 183.496094 L 43.585938 183.496094 L 43.585938 231.867188 L 36.011719 231.867188 Z M 36.011719 183.496094 " clip-rule="nonzero"/></clipPath><clipPath id="c6c5c605ea"><path d="M 39.796875 183.496094 C 40.800781 183.496094 41.765625 183.894531 42.476562 184.605469 C 43.1875 185.316406 43.585938 186.277344 43.585938 187.28125 L 43.585938 228.070312 C 43.585938 229.074219 43.1875 230.035156 42.476562 230.746094 C 41.765625 231.457031 40.800781 231.855469 39.796875 231.855469 C 38.792969 231.855469 37.832031 231.457031 37.121094 230.746094 C 36.410156 230.035156 36.011719 229.074219 36.011719 228.070312 L 36.011719 187.28125 C 36.011719 186.277344 36.410156 185.316406 37.121094 184.605469 C 37.832031 183.894531 38.792969 183.496094 39.796875 183.496094 Z M 39.796875 183.496094 " clip-rule="nonzero"/></clipPath><clipPath id="b6588c7f2d"><path d="M 0.0117188 0.496094 L 7.585938 0.496094 L 7.585938 48.867188 L 0.0117188 48.867188 Z M 0.0117188 0.496094 " clip-rule="nonzero"/></clipPath><clipPath id="e190788eb7"><path d="M 3.796875 0.496094 C 4.800781 0.496094 5.765625 0.894531 6.476562 1.605469 C 7.1875 2.316406 7.585938 3.277344 7.585938 4.28125 L 7.585938 45.070312 C 7.585938 46.074219 7.1875 47.035156 6.476562 47.746094 C 5.765625 48.457031 4.800781 48.855469 3.796875 48.855469 C 2.792969 48.855469 1.832031 48.457031 1.121094 47.746094 C 0.410156 47.035156 0.0117188 46.074219 0.0117188 45.070312 L 0.0117188 4.28125 C 0.0117188 3.277344 0.410156 2.316406 1.121094 1.605469 C 1.832031 0.894531 2.792969 0.496094 3.796875 0.496094 Z M 3.796875 0.496094 " clip-rule="nonzero"/></clipPath><clipPath id="2fd1180b3d"><rect x="0" width="8" y="0" height="49"/></clipPath><clipPath id="6a4dcff2a9"><path d="M 8.152344 123.984375 L 72.765625 123.984375 L 72.765625 188.59375 L 8.152344 188.59375 Z M 8.152344 123.984375 " clip-rule="nonzero"/></clipPath><clipPath id="3eafa92d71"><path d="M 40.460938 123.984375 C 22.617188 123.984375 8.152344 138.449219 8.152344 156.289062 C 8.152344 174.132812 22.617188 188.59375 40.460938 188.59375 C 58.300781 188.59375 72.765625 174.132812 72.765625 156.289062 C 72.765625 138.449219 58.300781 123.984375 40.460938 123.984375 Z M 40.460938 123.984375 " clip-rule="nonzero"/></clipPath><clipPath id="4b5d557bd3"><path d="M 0.152344 0.984375 L 64.765625 0.984375 L 64.765625 65.59375 L 0.152344 65.59375 Z M 0.152344 0.984375 " clip-rule="nonzero"/></clipPath><clipPath id="486e279538"><path d="M 32.460938 0.984375 C 14.617188 0.984375 0.152344 15.449219 0.152344 33.289062 C 0.152344 51.132812 14.617188 65.59375 32.460938 65.59375 C 50.300781 65.59375 64.765625 51.132812 64.765625 33.289062 C 64.765625 15.449219 50.300781 0.984375 32.460938 0.984375 Z M 32.460938 0.984375 " clip-rule="nonzero"/></clipPath><clipPath id="de3aec9b55"><rect x="0" width="65" y="0" height="66"/></clipPath><clipPath id="8fb0229c12"><path d="M 0 193.179688 L 25.890625 193.179688 L 25.890625 251.015625 L 0 251.015625 Z M 0 193.179688 " clip-rule="nonzero"/></clipPath><clipPath id="b8ff637adb"><path d="M 0 0.179688 L 25.890625 0.179688 L 25.890625 58.015625 L 0 58.015625 Z M 0 0.179688 " clip-rule="nonzero"/></clipPath><clipPath id="168a9fb511"><rect x="0" width="26" y="0" height="59"/></clipPath><clipPath id="641cba5fa0"><path d="M 22.753906 225 L 375 225 L 375 251.015625 L 22.753906 251.015625 Z M 22.753906 225 " clip-rule="nonzero"/></clipPath><clipPath id="cc1d7d5821"><path d="M 0.753906 0 L 353 0 L 353 26.015625 L 0.753906 26.015625 Z M 0.753906 0 " clip-rule="nonzero"/></clipPath><clipPath id="d47952bde4"><rect x="0" width="353" y="0" height="27"/></clipPath><clipPath id="775a4466f8"><rect x="0" width="146" y="0" height="26"/></clipPath><clipPath id="9cf6705773"><rect x="0" width="311" y="0" height="40"/></clipPath></defs><g clip-path="url(#055e98bb15)"><g clip-path="url(#c6c5c605ea)"><g transform="matrix(1, 0, 0, 1, 36, 183)"><g clip-path="url(#2fd1180b3d)"><g clip-path="url(#b6588c7f2d)"><g clip-path="url(#e190788eb7)"><path fill="#693e1b" d="M 0.0117188 0.496094 L 7.585938 0.496094 L 7.585938 48.867188 L 0.0117188 48.867188 Z M 0.0117188 0.496094 " fill-opacity="1" fill-rule="nonzero"/></g></g></g></g></g></g><g clip-path="url(#6a4dcff2a9)"><g clip-path="url(#3eafa92d71)"><g transform="matrix(1, 0, 0, 1, 8, 123)"><g clip-path="url(#de3aec9b55)"><g clip-path="url(#4b5d557bd3)"><g clip-path="url(#486e279538)"><path fill="#1b9e2e" d="M 0.152344 0.984375 L 64.765625 0.984375 L 64.765625 65.59375 L 0.152344 65.59375 Z M 0.152344 0.984375 " fill-opacity="1" fill-rule="nonzero"/></g></g></g></g></g></g><g clip-path="url(#8fb0229c12)"><g transform="matrix(1, 0, 0, 1, 0, 193)"><g clip-path="url(#168a9fb511)"><g clip-path="url(#b8ff637adb)"><path fill="#02441e" d="M 0 0.179688 L 25.890625 0.179688 L 25.890625 58.023438 L 0 58.023438 Z M 0 0.179688 " fill-opacity="1" fill-rule="nonzero"/></g></g></g></g><g clip-path="url(#641cba5fa0)"><g transform="matrix(1, 0, 0, 1, 22, 225)"><g clip-path="url(#d47952bde4)"><g clip-path="url(#cc1d7d5821)"><path fill="#02441e" d="M 0.753906 0 L 352.980469 0 L 352.980469 26.015625 L 0.753906 26.015625 Z M 0.753906 0 " fill-opacity="1" fill-rule="nonzero"/></g></g></g></g><g transform="matrix(1, 0, 0, 1, 56, 225)"><g clip-path="url(#775a4466f8)"><g fill="#ffffff" fill-opacity="1"><g transform="translate(0.971466, 18.739306)"><g><path d="M 10.703125 -8.75 C 10.359375 -9.46875 9.863281 -10.023438 9.21875 -10.421875 C 8.570312 -10.816406 7.816406 -11.015625 6.953125 -11.015625 C 6.085938 -11.015625 5.3125 -10.816406 4.625 -10.421875 C 3.9375 -10.023438 3.394531 -9.457031 3 -8.71875 C 2.601562 -7.988281 2.40625 -7.140625 2.40625 -6.171875 C 2.40625 -5.203125 2.601562 -4.351562 3 -3.625 C 3.394531 -2.894531 3.9375 -2.332031 4.625 -1.9375 C 5.3125 -1.539062 6.085938 -1.34375 6.953125 -1.34375 C 8.148438 -1.34375 9.140625 -1.703125 9.921875 -2.421875 C 10.703125 -3.140625 11.15625 -4.113281 11.28125 -5.34375 L 6.375 -5.34375 L 6.375 -6.65625 L 13 -6.65625 L 13 -5.40625 C 12.90625 -4.394531 12.585938 -3.46875 12.046875 -2.625 C 11.503906 -1.78125 10.789062 -1.113281 9.90625 -0.625 C 9.019531 -0.132812 8.035156 0.109375 6.953125 0.109375 C 5.804688 0.109375 4.757812 -0.15625 3.8125 -0.6875 C 2.875 -1.226562 2.128906 -1.976562 1.578125 -2.9375 C 1.035156 -3.894531 0.765625 -4.972656 0.765625 -6.171875 C 0.765625 -7.378906 1.035156 -8.460938 1.578125 -9.421875 C 2.128906 -10.378906 2.875 -11.125 3.8125 -11.65625 C 4.757812 -12.195312 5.804688 -12.46875 6.953125 -12.46875 C 8.265625 -12.46875 9.421875 -12.144531 10.421875 -11.5 C 11.429688 -10.851562 12.164062 -9.9375 12.625 -8.75 Z M 10.703125 -8.75 "/></g></g></g><g fill="#ffffff" fill-opacity="1"><g transform="translate(14.737471, 18.739306)"><g><path d="M 2.1875 -11.265625 C 1.882812 -11.265625 1.625 -11.367188 1.40625 -11.578125 C 1.195312 -11.796875 1.09375 -12.054688 1.09375 -12.359375 C 1.09375 -12.671875 1.195312 -12.929688 1.40625 -13.140625 C 1.625 -13.347656 1.882812 -13.453125 2.1875 -13.453125 C 2.488281 -13.453125 2.738281 -13.347656 2.9375 -13.140625 C 3.144531 -12.929688 3.25 -12.671875 3.25 -12.359375 C 3.25 -12.054688 3.144531 -11.796875 2.9375 -11.578125 C 2.738281 -11.367188 2.488281 -11.265625 2.1875 -11.265625 Z M 2.96875 -9.6875 L 2.96875 0 L 1.359375 0 L 1.359375 -9.6875 Z M 2.96875 -9.6875 "/></g></g></g><g fill="#ffffff" fill-opacity="1"><g transform="translate(19.090224, 18.739306)"><g><path d="M 5.59375 0.15625 C 4.6875 0.15625 3.863281 -0.046875 3.125 -0.453125 C 2.382812 -0.867188 1.804688 -1.457031 1.390625 -2.21875 C 0.972656 -2.976562 0.765625 -3.859375 0.765625 -4.859375 C 0.765625 -5.847656 0.976562 -6.722656 1.40625 -7.484375 C 1.832031 -8.242188 2.414062 -8.828125 3.15625 -9.234375 C 3.90625 -9.648438 4.738281 -9.859375 5.65625 -9.859375 C 6.582031 -9.859375 7.414062 -9.648438 8.15625 -9.234375 C 8.894531 -8.828125 9.476562 -8.25 9.90625 -7.5 C 10.34375 -6.75 10.5625 -5.867188 10.5625 -4.859375 C 10.5625 -3.859375 10.335938 -2.976562 9.890625 -2.21875 C 9.453125 -1.457031 8.851562 -0.867188 8.09375 -0.453125 C 7.34375 -0.046875 6.507812 0.15625 5.59375 0.15625 Z M 5.59375 -1.25 C 6.164062 -1.25 6.707031 -1.382812 7.21875 -1.65625 C 7.726562 -1.925781 8.140625 -2.332031 8.453125 -2.875 C 8.765625 -3.425781 8.921875 -4.085938 8.921875 -4.859375 C 8.921875 -5.640625 8.765625 -6.300781 8.453125 -6.84375 C 8.148438 -7.382812 7.75 -7.785156 7.25 -8.046875 C 6.757812 -8.316406 6.222656 -8.453125 5.640625 -8.453125 C 5.054688 -8.453125 4.519531 -8.316406 4.03125 -8.046875 C 3.539062 -7.785156 3.144531 -7.382812 2.84375 -6.84375 C 2.550781 -6.300781 2.40625 -5.640625 2.40625 -4.859375 C 2.40625 -4.066406 2.546875 -3.398438 2.828125 -2.859375 C 3.117188 -2.316406 3.503906 -1.910156 3.984375 -1.640625 C 4.472656 -1.378906 5.007812 -1.25 5.59375 -1.25 Z M 5.59375 -1.25 "/></g></g></g><g fill="#ffffff" fill-opacity="1"><g transform="translate(30.414447, 18.739306)"><g><path d="M 4.96875 -1.484375 L 7.984375 -9.6875 L 9.6875 -9.6875 L 5.890625 0 L 4.015625 0 L 0.21875 -9.6875 L 1.953125 -9.6875 Z M 4.96875 -1.484375 "/></g></g></g><g fill="#ffffff" fill-opacity="1"><g transform="translate(40.340835, 18.739306)"><g><path d="M 0.765625 -4.875 C 0.765625 -5.875 0.960938 -6.742188 1.359375 -7.484375 C 1.765625 -8.234375 2.316406 -8.816406 3.015625 -9.234375 C 3.710938 -9.648438 4.492188 -9.859375 5.359375 -9.859375 C 6.210938 -9.859375 6.945312 -9.671875 7.5625 -9.296875 C 8.1875 -8.929688 8.65625 -8.472656 8.96875 -7.921875 L 8.96875 -9.6875 L 10.59375 -9.6875 L 10.59375 0 L 8.96875 0 L 8.96875 -1.796875 C 8.644531 -1.234375 8.164062 -0.765625 7.53125 -0.390625 C 6.90625 -0.0234375 6.175781 0.15625 5.34375 0.15625 C 4.476562 0.15625 3.695312 -0.0507812 3 -0.46875 C 2.3125 -0.894531 1.765625 -1.488281 1.359375 -2.25 C 0.960938 -3.019531 0.765625 -3.894531 0.765625 -4.875 Z M 8.96875 -4.859375 C 8.96875 -5.585938 8.816406 -6.222656 8.515625 -6.765625 C 8.222656 -7.316406 7.828125 -7.734375 7.328125 -8.015625 C 6.828125 -8.304688 6.273438 -8.453125 5.671875 -8.453125 C 5.078125 -8.453125 4.53125 -8.3125 4.03125 -8.03125 C 3.539062 -7.75 3.144531 -7.335938 2.84375 -6.796875 C 2.550781 -6.253906 2.40625 -5.613281 2.40625 -4.875 C 2.40625 -4.132812 2.550781 -3.488281 2.84375 -2.9375 C 3.144531 -2.394531 3.539062 -1.976562 4.03125 -1.6875 C 4.53125 -1.394531 5.078125 -1.25 5.671875 -1.25 C 6.273438 -1.25 6.828125 -1.394531 7.328125 -1.6875 C 7.828125 -1.976562 8.222656 -2.394531 8.515625 -2.9375 C 8.816406 -3.488281 8.96875 -4.128906 8.96875 -4.859375 Z M 8.96875 -4.859375 "/></g></g></g><g fill="#ffffff" fill-opacity="1"><g transform="translate(52.302049, 18.739306)"><g><path d="M 6.078125 -9.875 C 7.265625 -9.875 8.222656 -9.515625 8.953125 -8.796875 C 9.679688 -8.085938 10.046875 -7.0625 10.046875 -5.71875 L 10.046875 0 L 8.453125 0 L 8.453125 -5.484375 C 8.453125 -6.453125 8.207031 -7.191406 7.71875 -7.703125 C 7.238281 -8.210938 6.582031 -8.46875 5.75 -8.46875 C 4.894531 -8.46875 4.21875 -8.203125 3.71875 -7.671875 C 3.21875 -7.140625 2.96875 -6.367188 2.96875 -5.359375 L 2.96875 0 L 1.359375 0 L 1.359375 -9.6875 L 2.96875 -9.6875 L 2.96875 -8.3125 C 3.289062 -8.8125 3.722656 -9.195312 4.265625 -9.46875 C 4.816406 -9.738281 5.421875 -9.875 6.078125 -9.875 Z M 6.078125 -9.875 "/></g></g></g><g fill="#ffffff" fill-opacity="1"><g transform="translate(63.626273, 18.739306)"><g><path d="M 6.078125 -9.875 C 7.265625 -9.875 8.222656 -9.515625 8.953125 -8.796875 C 9.679688 -8.085938 10.046875 -7.0625 10.046875 -5.71875 L 10.046875 0 L 8.453125 0 L 8.453125 -5.484375 C 8.453125 -6.453125 8.207031 -7.191406 7.71875 -7.703125 C 7.238281 -8.210938 6.582031 -8.46875 5.75 -8.46875 C 4.894531 -8.46875 4.21875 -8.203125 3.71875 -7.671875 C 3.21875 -7.140625 2.96875 -6.367188 2.96875 -5.359375 L 2.96875 0 L 1.359375 0 L 1.359375 -9.6875 L 2.96875 -9.6875 L 2.96875 -8.3125 C 3.289062 -8.8125 3.722656 -9.195312 4.265625 -9.46875 C 4.816406 -9.738281 5.421875 -9.875 6.078125 -9.875 Z M 6.078125 -9.875 "/></g></g></g><g fill="#ffffff" fill-opacity="1"><g transform="translate(74.950496, 18.739306)"><g><path d="M 2.1875 -11.265625 C 1.882812 -11.265625 1.625 -11.367188 1.40625 -11.578125 C 1.195312 -11.796875 1.09375 -12.054688 1.09375 -12.359375 C 1.09375 -12.671875 1.195312 -12.929688 1.40625 -13.140625 C 1.625 -13.347656 1.882812 -13.453125 2.1875 -13.453125 C 2.488281 -13.453125 2.738281 -13.347656 2.9375 -13.140625 C 3.144531 -12.929688 3.25 -12.671875 3.25 -12.359375 C 3.25 -12.054688 3.144531 -11.796875 2.9375 -11.578125 C 2.738281 -11.367188 2.488281 -11.265625 2.1875 -11.265625 Z M 2.96875 -9.6875 L 2.96875 0 L 1.359375 0 L 1.359375 -9.6875 Z M 2.96875 -9.6875 "/></g></g></g><g fill="#ffffff" fill-opacity="1"><g transform="translate(79.303249, 18.739306)"><g/></g></g><g fill="#ffffff" fill-opacity="1"><g transform="translate(84.027578, 18.739306)"><g><path d="M 7.859375 0 L 4.921875 -5.046875 L 2.96875 -5.046875 L 2.96875 0 L 1.359375 0 L 1.359375 -12.328125 L 5.34375 -12.328125 C 6.269531 -12.328125 7.054688 -12.164062 7.703125 -11.84375 C 8.347656 -11.53125 8.828125 -11.101562 9.140625 -10.5625 C 9.460938 -10.019531 9.625 -9.398438 9.625 -8.703125 C 9.625 -7.847656 9.378906 -7.097656 8.890625 -6.453125 C 8.398438 -5.804688 7.664062 -5.378906 6.6875 -5.171875 L 9.78125 0 Z M 2.96875 -6.328125 L 5.34375 -6.328125 C 6.21875 -6.328125 6.867188 -6.539062 7.296875 -6.96875 C 7.734375 -7.40625 7.953125 -7.984375 7.953125 -8.703125 C 7.953125 -9.429688 7.738281 -9.992188 7.3125 -10.390625 C 6.882812 -10.796875 6.226562 -11 5.34375 -11 L 2.96875 -11 Z M 2.96875 -6.328125 "/></g></g></g><g fill="#ffffff" fill-opacity="1"><g transform="translate(94.785595, 18.739306)"><g><path d="M 5.59375 0.15625 C 4.6875 0.15625 3.863281 -0.046875 3.125 -0.453125 C 2.382812 -0.867188 1.804688 -1.457031 1.390625 -2.21875 C 0.972656 -2.976562 0.765625 -3.859375 0.765625 -4.859375 C 0.765625 -5.847656 0.976562 -6.722656 1.40625 -7.484375 C 1.832031 -8.242188 2.414062 -8.828125 3.15625 -9.234375 C 3.90625 -9.648438 4.738281 -9.859375 5.65625 -9.859375 C 6.582031 -9.859375 7.414062 -9.648438 8.15625 -9.234375 C 8.894531 -8.828125 9.476562 -8.25 9.90625 -7.5 C 10.34375 -6.75 10.5625 -5.867188 10.5625 -4.859375 C 10.5625 -3.859375 10.335938 -2.976562 9.890625 -2.21875 C 9.453125 -1.457031 8.851562 -0.867188 8.09375 -0.453125 C 7.34375 -0.046875 6.507812 0.15625 5.59375 0.15625 Z M 5.59375 -1.25 C 6.164062 -1.25 6.707031 -1.382812 7.21875 -1.65625 C 7.726562 -1.925781 8.140625 -2.332031 8.453125 -2.875 C 8.765625 -3.425781 8.921875 -4.085938 8.921875 -4.859375 C 8.921875 -5.640625 8.765625 -6.300781 8.453125 -6.84375 C 8.148438 -7.382812 7.75 -7.785156 7.25 -8.046875 C 6.757812 -8.316406 6.222656 -8.453125 5.640625 -8.453125 C 5.054688 -8.453125 4.519531 -8.316406 4.03125 -8.046875 C 3.539062 -7.785156 3.144531 -7.382812 2.84375 -6.84375 C 2.550781 -6.300781 2.40625 -5.640625 2.40625 -4.859375 C 2.40625 -4.066406 2.546875 -3.398438 2.828125 -2.859375 C 3.117188 -2.316406 3.503906 -1.910156 3.984375 -1.640625 C 4.472656 -1.378906 5.007812 -1.25 5.59375 -1.25 Z M 5.59375 -1.25 "/></g></g></g><g fill="#ffffff" fill-opacity="1"><g transform="translate(106.109819, 18.739306)"><g><path d="M 4.96875 -1.484375 L 7.984375 -9.6875 L 9.6875 -9.6875 L 5.890625 0 L 4.015625 0 L 0.21875 -9.6875 L 1.953125 -9.6875 Z M 4.96875 -1.484375 "/></g></g></g><g fill="#ffffff" fill-opacity="1"><g transform="translate(116.036206, 18.739306)"><g><path d="M 10.203125 -5.21875 C 10.203125 -4.914062 10.1875 -4.59375 10.15625 -4.25 L 2.40625 -4.25 C 2.46875 -3.289062 2.796875 -2.539062 3.390625 -2 C 3.984375 -1.46875 4.703125 -1.203125 5.546875 -1.203125 C 6.242188 -1.203125 6.828125 -1.363281 7.296875 -1.6875 C 7.765625 -2.007812 8.09375 -2.441406 8.28125 -2.984375 L 10.015625 -2.984375 C 9.753906 -2.054688 9.234375 -1.300781 8.453125 -0.71875 C 7.671875 -0.132812 6.703125 0.15625 5.546875 0.15625 C 4.628906 0.15625 3.804688 -0.046875 3.078125 -0.453125 C 2.359375 -0.867188 1.789062 -1.457031 1.375 -2.21875 C 0.96875 -2.976562 0.765625 -3.859375 0.765625 -4.859375 C 0.765625 -5.867188 0.960938 -6.75 1.359375 -7.5 C 1.765625 -8.25 2.328125 -8.828125 3.046875 -9.234375 C 3.773438 -9.648438 4.609375 -9.859375 5.546875 -9.859375 C 6.472656 -9.859375 7.289062 -9.65625 8 -9.25 C 8.707031 -8.851562 9.25 -8.300781 9.625 -7.59375 C 10.007812 -6.894531 10.203125 -6.101562 10.203125 -5.21875 Z M 8.546875 -5.546875 C 8.546875 -6.160156 8.410156 -6.6875 8.140625 -7.125 C 7.867188 -7.570312 7.5 -7.910156 7.03125 -8.140625 C 6.5625 -8.367188 6.046875 -8.484375 5.484375 -8.484375 C 4.671875 -8.484375 3.976562 -8.222656 3.40625 -7.703125 C 2.832031 -7.191406 2.503906 -6.472656 2.421875 -5.546875 Z M 8.546875 -5.546875 "/></g></g></g><g fill="#ffffff" fill-opacity="1"><g transform="translate(127.006548, 18.739306)"><g><path d="M 2.96875 -8.125 C 3.25 -8.675781 3.648438 -9.101562 4.171875 -9.40625 C 4.703125 -9.71875 5.347656 -9.875 6.109375 -9.875 L 6.109375 -8.203125 L 5.671875 -8.203125 C 3.867188 -8.203125 2.96875 -7.222656 2.96875 -5.265625 L 2.96875 0 L 1.359375 0 L 1.359375 -9.6875 L 2.96875 -9.6875 Z M 2.96875 -8.125 "/></g></g></g><g fill="#ffffff" fill-opacity="1"><g transform="translate(133.606442, 18.739306)"><g><path d="M 10.203125 -5.21875 C 10.203125 -4.914062 10.1875 -4.59375 10.15625 -4.25 L 2.40625 -4.25 C 2.46875 -3.289062 2.796875 -2.539062 3.390625 -2 C 3.984375 -1.46875 4.703125 -1.203125 5.546875 -1.203125 C 6.242188 -1.203125 6.828125 -1.363281 7.296875 -1.6875 C 7.765625 -2.007812 8.09375 -2.441406 8.28125 -2.984375 L 10.015625 -2.984375 C 9.753906 -2.054688 9.234375 -1.300781 8.453125 -0.71875 C 7.671875 -0.132812 6.703125 0.15625 5.546875 0.15625 C 4.628906 0.15625 3.804688 -0.046875 3.078125 -0.453125 C 2.359375 -0.867188 1.789062 -1.457031 1.375 -2.21875 C 0.96875 -2.976562 0.765625 -3.859375 0.765625 -4.859375 C 0.765625 -5.867188 0.960938 -6.75 1.359375 -7.5 C 1.765625 -8.25 2.328125 -8.828125 3.046875 -9.234375 C 3.773438 -9.648438 4.609375 -9.859375 5.546875 -9.859375 C 6.472656 -9.859375 7.289062 -9.65625 8 -9.25 C 8.707031 -8.851562 9.25 -8.300781 9.625 -7.59375 C 10.007812 -6.894531 10.203125 -6.101562 10.203125 -5.21875 Z M 8.546875 -5.546875 C 8.546875 -6.160156 8.410156 -6.6875 8.140625 -7.125 C 7.867188 -7.570312 7.5 -7.910156 7.03125 -8.140625 C 6.5625 -8.367188 6.046875 -8.484375 5.484375 -8.484375 C 4.671875 -8.484375 3.976562 -8.222656 3.40625 -7.703125 C 2.832031 -7.191406 2.503906 -6.472656 2.421875 -5.546875 Z M 8.546875 -5.546875 "/></g></g></g></g></g><g transform="matrix(1, 0, 0, 1, 53, 184)"><g clip-path="url(#9cf6705773)"><g fill="#000000" fill-opacity="1"><g transform="translate(0.443997, 28.63138)"><g><path d="M 14.46875 -13.140625 C 14.113281 -13.785156 13.613281 -14.273438 12.96875 -14.609375 C 12.320312 -14.953125 11.5625 -15.125 10.6875 -15.125 C 9.164062 -15.125 7.945312 -14.625 7.03125 -13.625 C 6.125 -12.632812 5.671875 -11.304688 5.671875 -9.640625 C 5.671875 -7.867188 6.148438 -6.484375 7.109375 -5.484375 C 8.066406 -4.492188 9.382812 -4 11.0625 -4 C 12.21875 -4 13.191406 -4.289062 13.984375 -4.875 C 14.773438 -5.457031 15.351562 -6.296875 15.71875 -7.390625 L 9.78125 -7.390625 L 9.78125 -10.84375 L 19.96875 -10.84375 L 19.96875 -6.484375 C 19.625 -5.316406 19.035156 -4.226562 18.203125 -3.21875 C 17.367188 -2.21875 16.3125 -1.40625 15.03125 -0.78125 C 13.757812 -0.164062 12.316406 0.140625 10.703125 0.140625 C 8.804688 0.140625 7.113281 -0.273438 5.625 -1.109375 C 4.132812 -1.941406 2.972656 -3.097656 2.140625 -4.578125 C 1.316406 -6.054688 0.90625 -7.742188 0.90625 -9.640625 C 0.90625 -11.535156 1.316406 -13.226562 2.140625 -14.71875 C 2.972656 -16.207031 4.128906 -17.367188 5.609375 -18.203125 C 7.085938 -19.035156 8.78125 -19.453125 10.6875 -19.453125 C 12.988281 -19.453125 14.925781 -18.894531 16.5 -17.78125 C 18.082031 -16.664062 19.128906 -15.117188 19.640625 -13.140625 Z M 14.46875 -13.140625 "/></g></g></g><g fill="#000000" fill-opacity="1"><g transform="translate(21.308928, 28.63138)"><g><path d="M 0.765625 -7.671875 C 0.765625 -9.242188 1.0625 -10.617188 1.65625 -11.796875 C 2.25 -12.984375 3.054688 -13.894531 4.078125 -14.53125 C 5.097656 -15.175781 6.238281 -15.5 7.5 -15.5 C 8.582031 -15.5 9.53125 -15.28125 10.34375 -14.84375 C 11.15625 -14.40625 11.78125 -13.832031 12.21875 -13.125 L 12.21875 -15.28125 L 16.90625 -15.28125 L 16.90625 0 L 12.21875 0 L 12.21875 -2.15625 C 11.757812 -1.445312 11.125 -0.875 10.3125 -0.4375 C 9.5 0 8.554688 0.21875 7.484375 0.21875 C 6.234375 0.21875 5.097656 -0.101562 4.078125 -0.75 C 3.054688 -1.394531 2.25 -2.316406 1.65625 -3.515625 C 1.0625 -4.710938 0.765625 -6.097656 0.765625 -7.671875 Z M 12.21875 -7.640625 C 12.21875 -8.804688 11.890625 -9.726562 11.234375 -10.40625 C 10.585938 -11.082031 9.800781 -11.421875 8.875 -11.421875 C 7.945312 -11.421875 7.15625 -11.085938 6.5 -10.421875 C 5.851562 -9.753906 5.53125 -8.835938 5.53125 -7.671875 C 5.53125 -6.503906 5.851562 -5.578125 6.5 -4.890625 C 7.15625 -4.203125 7.945312 -3.859375 8.875 -3.859375 C 9.800781 -3.859375 10.585938 -4.195312 11.234375 -4.875 C 11.890625 -5.550781 12.21875 -6.472656 12.21875 -7.640625 Z M 12.21875 -7.640625 "/></g></g></g><g fill="#000000" fill-opacity="1"><g transform="translate(39.901174, 28.63138)"><g><path d="M 6.375 -12.734375 C 6.925781 -13.578125 7.613281 -14.238281 8.4375 -14.71875 C 9.257812 -15.207031 10.171875 -15.453125 11.171875 -15.453125 L 11.171875 -10.484375 L 9.890625 -10.484375 C 8.722656 -10.484375 7.84375 -10.234375 7.25 -9.734375 C 6.664062 -9.234375 6.375 -8.351562 6.375 -7.09375 L 6.375 0 L 1.703125 0 L 1.703125 -15.28125 L 6.375 -15.28125 Z M 6.375 -12.734375 "/></g></g></g><g fill="#000000" fill-opacity="1"><g transform="translate(51.620588, 28.63138)"><g><path d="M 0.765625 -7.671875 C 0.765625 -9.242188 1.0625 -10.617188 1.65625 -11.796875 C 2.25 -12.984375 3.054688 -13.894531 4.078125 -14.53125 C 5.097656 -15.175781 6.238281 -15.5 7.5 -15.5 C 8.507812 -15.5 9.425781 -15.289062 10.25 -14.875 C 11.082031 -14.457031 11.738281 -13.890625 12.21875 -13.171875 L 12.21875 -20.265625 L 16.90625 -20.265625 L 16.90625 0 L 12.21875 0 L 12.21875 -2.1875 C 11.78125 -1.457031 11.15625 -0.875 10.34375 -0.4375 C 9.53125 0 8.582031 0.21875 7.5 0.21875 C 6.238281 0.21875 5.097656 -0.101562 4.078125 -0.75 C 3.054688 -1.394531 2.25 -2.316406 1.65625 -3.515625 C 1.0625 -4.710938 0.765625 -6.097656 0.765625 -7.671875 Z M 12.21875 -7.640625 C 12.21875 -8.804688 11.890625 -9.726562 11.234375 -10.40625 C 10.585938 -11.082031 9.800781 -11.421875 8.875 -11.421875 C 7.945312 -11.421875 7.15625 -11.085938 6.5 -10.421875 C 5.851562 -9.753906 5.53125 -8.835938 5.53125 -7.671875 C 5.53125 -6.503906 5.851562 -5.578125 6.5 -4.890625 C 7.15625 -4.203125 7.945312 -3.859375 8.875 -3.859375 C 9.800781 -3.859375 10.585938 -4.195312 11.234375 -4.875 C 11.890625 -5.550781 12.21875 -6.472656 12.21875 -7.640625 Z M 12.21875 -7.640625 "/></g></g></g><g fill="#000000" fill-opacity="1"><g transform="translate(70.212833, 28.63138)"><g><path d="M 16.109375 -7.890625 C 16.109375 -7.453125 16.082031 -6.992188 16.03125 -6.515625 L 5.421875 -6.515625 C 5.492188 -5.566406 5.800781 -4.84375 6.34375 -4.34375 C 6.882812 -3.84375 7.546875 -3.59375 8.328125 -3.59375 C 9.492188 -3.59375 10.304688 -4.082031 10.765625 -5.0625 L 15.75 -5.0625 C 15.488281 -4.0625 15.023438 -3.160156 14.359375 -2.359375 C 13.691406 -1.554688 12.859375 -0.925781 11.859375 -0.46875 C 10.859375 -0.0078125 9.734375 0.21875 8.484375 0.21875 C 6.992188 0.21875 5.660156 -0.0976562 4.484375 -0.734375 C 3.316406 -1.378906 2.40625 -2.296875 1.75 -3.484375 C 1.09375 -4.671875 0.765625 -6.054688 0.765625 -7.640625 C 0.765625 -9.234375 1.085938 -10.617188 1.734375 -11.796875 C 2.390625 -12.984375 3.300781 -13.894531 4.46875 -14.53125 C 5.632812 -15.175781 6.972656 -15.5 8.484375 -15.5 C 9.960938 -15.5 11.273438 -15.1875 12.421875 -14.5625 C 13.578125 -13.945312 14.476562 -13.0625 15.125 -11.90625 C 15.78125 -10.757812 16.109375 -9.421875 16.109375 -7.890625 Z M 11.3125 -9.125 C 11.3125 -9.925781 11.035156 -10.5625 10.484375 -11.03125 C 9.941406 -11.507812 9.257812 -11.75 8.4375 -11.75 C 7.65625 -11.75 6.992188 -11.519531 6.453125 -11.0625 C 5.910156 -10.601562 5.578125 -9.957031 5.453125 -9.125 Z M 11.3125 -9.125 "/></g></g></g><g fill="#000000" fill-opacity="1"><g transform="translate(87.080022, 28.63138)"><g><path d="M 11.015625 -15.453125 C 12.804688 -15.453125 14.234375 -14.867188 15.296875 -13.703125 C 16.367188 -12.546875 16.90625 -10.953125 16.90625 -8.921875 L 16.90625 0 L 12.25 0 L 12.25 -8.296875 C 12.25 -9.316406 11.984375 -10.109375 11.453125 -10.671875 C 10.921875 -11.242188 10.207031 -11.53125 9.3125 -11.53125 C 8.414062 -11.53125 7.703125 -11.242188 7.171875 -10.671875 C 6.640625 -10.109375 6.375 -9.316406 6.375 -8.296875 L 6.375 0 L 1.703125 0 L 1.703125 -15.28125 L 6.375 -15.28125 L 6.375 -13.25 C 6.851562 -13.925781 7.492188 -14.460938 8.296875 -14.859375 C 9.097656 -15.253906 10.003906 -15.453125 11.015625 -15.453125 Z M 11.015625 -15.453125 "/></g></g></g><g fill="#000000" fill-opacity="1"><g transform="translate(105.535342, 28.63138)"><g/></g></g><g fill="#000000" fill-opacity="1"><g transform="translate(111.340276, 28.63138)"><g><path d="M 8.90625 -19.234375 C 10.925781 -19.234375 12.691406 -18.828125 14.203125 -18.015625 C 15.722656 -17.210938 16.898438 -16.085938 17.734375 -14.640625 C 18.566406 -13.191406 18.984375 -11.515625 18.984375 -9.609375 C 18.984375 -7.734375 18.566406 -6.0625 17.734375 -4.59375 C 16.898438 -3.132812 15.722656 -2.003906 14.203125 -1.203125 C 12.679688 -0.398438 10.914062 0 8.90625 0 L 1.703125 0 L 1.703125 -19.234375 Z M 8.59375 -4.046875 C 10.363281 -4.046875 11.742188 -4.53125 12.734375 -5.5 C 13.722656 -6.46875 14.21875 -7.835938 14.21875 -9.609375 C 14.21875 -11.378906 13.722656 -12.757812 12.734375 -13.75 C 11.742188 -14.738281 10.363281 -15.234375 8.59375 -15.234375 L 6.375 -15.234375 L 6.375 -4.046875 Z M 8.59375 -4.046875 "/></g></g></g><g fill="#000000" fill-opacity="1"><g transform="translate(131.246839, 28.63138)"><g><path d="M 16.109375 -7.890625 C 16.109375 -7.453125 16.082031 -6.992188 16.03125 -6.515625 L 5.421875 -6.515625 C 5.492188 -5.566406 5.800781 -4.84375 6.34375 -4.34375 C 6.882812 -3.84375 7.546875 -3.59375 8.328125 -3.59375 C 9.492188 -3.59375 10.304688 -4.082031 10.765625 -5.0625 L 15.75 -5.0625 C 15.488281 -4.0625 15.023438 -3.160156 14.359375 -2.359375 C 13.691406 -1.554688 12.859375 -0.925781 11.859375 -0.46875 C 10.859375 -0.0078125 9.734375 0.21875 8.484375 0.21875 C 6.992188 0.21875 5.660156 -0.0976562 4.484375 -0.734375 C 3.316406 -1.378906 2.40625 -2.296875 1.75 -3.484375 C 1.09375 -4.671875 0.765625 -6.054688 0.765625 -7.640625 C 0.765625 -9.234375 1.085938 -10.617188 1.734375 -11.796875 C 2.390625 -12.984375 3.300781 -13.894531 4.46875 -14.53125 C 5.632812 -15.175781 6.972656 -15.5 8.484375 -15.5 C 9.960938 -15.5 11.273438 -15.1875 12.421875 -14.5625 C 13.578125 -13.945312 14.476562 -13.0625 15.125 -11.90625 C 15.78125 -10.757812 16.109375 -9.421875 16.109375 -7.890625 Z M 11.3125 -9.125 C 11.3125 -9.925781 11.035156 -10.5625 10.484375 -11.03125 C 9.941406 -11.507812 9.257812 -11.75 8.4375 -11.75 C 7.65625 -11.75 6.992188 -11.519531 6.453125 -11.0625 C 5.910156 -10.601562 5.578125 -9.957031 5.453125 -9.125 Z M 11.3125 -9.125 "/></g></g></g><g fill="#000000" fill-opacity="1"><g transform="translate(148.114027, 28.63138)"><g><path d="M 7.921875 0.21875 C 6.585938 0.21875 5.398438 -0.0078125 4.359375 -0.46875 C 3.316406 -0.925781 2.492188 -1.550781 1.890625 -2.34375 C 1.285156 -3.132812 0.945312 -4.023438 0.875 -5.015625 L 5.5 -5.015625 C 5.5625 -4.484375 5.8125 -4.050781 6.25 -3.71875 C 6.6875 -3.394531 7.222656 -3.234375 7.859375 -3.234375 C 8.441406 -3.234375 8.894531 -3.347656 9.21875 -3.578125 C 9.539062 -3.804688 9.703125 -4.101562 9.703125 -4.46875 C 9.703125 -4.90625 9.472656 -5.226562 9.015625 -5.4375 C 8.554688 -5.644531 7.816406 -5.878906 6.796875 -6.140625 C 5.703125 -6.390625 4.785156 -6.65625 4.046875 -6.9375 C 3.316406 -7.226562 2.6875 -7.675781 2.15625 -8.28125 C 1.632812 -8.894531 1.375 -9.722656 1.375 -10.765625 C 1.375 -11.640625 1.613281 -12.4375 2.09375 -13.15625 C 2.582031 -13.882812 3.296875 -14.457031 4.234375 -14.875 C 5.171875 -15.289062 6.289062 -15.5 7.59375 -15.5 C 9.507812 -15.5 11.019531 -15.023438 12.125 -14.078125 C 13.226562 -13.128906 13.863281 -11.867188 14.03125 -10.296875 L 9.703125 -10.296875 C 9.628906 -10.828125 9.394531 -11.25 9 -11.5625 C 8.601562 -11.875 8.085938 -12.03125 7.453125 -12.03125 C 6.898438 -12.03125 6.476562 -11.921875 6.1875 -11.703125 C 5.894531 -11.492188 5.75 -11.207031 5.75 -10.84375 C 5.75 -10.40625 5.984375 -10.078125 6.453125 -9.859375 C 6.921875 -9.640625 7.644531 -9.421875 8.625 -9.203125 C 9.757812 -8.910156 10.679688 -8.625 11.390625 -8.34375 C 12.109375 -8.0625 12.734375 -7.601562 13.265625 -6.96875 C 13.804688 -6.34375 14.085938 -5.5 14.109375 -4.4375 C 14.109375 -3.539062 13.851562 -2.738281 13.34375 -2.03125 C 12.84375 -1.332031 12.125 -0.78125 11.1875 -0.375 C 10.25 0.0195312 9.160156 0.21875 7.921875 0.21875 Z M 7.921875 0.21875 "/></g></g></g><g fill="#000000" fill-opacity="1"><g transform="translate(163.393066, 28.63138)"><g><path d="M 4.046875 -16.875 C 3.234375 -16.875 2.566406 -17.113281 2.046875 -17.59375 C 1.523438 -18.082031 1.265625 -18.679688 1.265625 -19.390625 C 1.265625 -20.117188 1.523438 -20.722656 2.046875 -21.203125 C 2.566406 -21.691406 3.234375 -21.9375 4.046875 -21.9375 C 4.859375 -21.9375 5.519531 -21.691406 6.03125 -21.203125 C 6.550781 -20.722656 6.8125 -20.117188 6.8125 -19.390625 C 6.8125 -18.679688 6.550781 -18.082031 6.03125 -17.59375 C 5.519531 -17.113281 4.859375 -16.875 4.046875 -16.875 Z M 6.375 -15.28125 L 6.375 0 L 1.703125 0 L 1.703125 -15.28125 Z M 6.375 -15.28125 "/></g></g></g><g fill="#000000" fill-opacity="1"><g transform="translate(171.470704, 28.63138)"><g><path d="M 7.5 -15.5 C 8.582031 -15.5 9.53125 -15.28125 10.34375 -14.84375 C 11.15625 -14.40625 11.78125 -13.832031 12.21875 -13.125 L 12.21875 -15.28125 L 16.90625 -15.28125 L 16.90625 -0.03125 C 16.90625 1.375 16.625 2.644531 16.0625 3.78125 C 15.507812 4.925781 14.660156 5.835938 13.515625 6.515625 C 12.378906 7.191406 10.960938 7.53125 9.265625 7.53125 C 6.992188 7.53125 5.15625 6.992188 3.75 5.921875 C 2.34375 4.859375 1.539062 3.414062 1.34375 1.59375 L 5.96875 1.59375 C 6.113281 2.175781 6.457031 2.632812 7 2.96875 C 7.550781 3.3125 8.226562 3.484375 9.03125 3.484375 C 10 3.484375 10.769531 3.203125 11.34375 2.640625 C 11.925781 2.085938 12.21875 1.195312 12.21875 -0.03125 L 12.21875 -2.1875 C 11.757812 -1.476562 11.128906 -0.898438 10.328125 -0.453125 C 9.523438 -0.00390625 8.582031 0.21875 7.5 0.21875 C 6.238281 0.21875 5.097656 -0.101562 4.078125 -0.75 C 3.054688 -1.394531 2.25 -2.316406 1.65625 -3.515625 C 1.0625 -4.710938 0.765625 -6.097656 0.765625 -7.671875 C 0.765625 -9.242188 1.0625 -10.617188 1.65625 -11.796875 C 2.25 -12.984375 3.054688 -13.894531 4.078125 -14.53125 C 5.097656 -15.175781 6.238281 -15.5 7.5 -15.5 Z M 12.21875 -7.640625 C 12.21875 -8.804688 11.890625 -9.726562 11.234375 -10.40625 C 10.585938 -11.082031 9.800781 -11.421875 8.875 -11.421875 C 7.945312 -11.421875 7.15625 -11.085938 6.5 -10.421875 C 5.851562 -9.753906 5.53125 -8.835938 5.53125 -7.671875 C 5.53125 -6.503906 5.851562 -5.578125 6.5 -4.890625 C 7.15625 -4.203125 7.945312 -3.859375 8.875 -3.859375 C 9.800781 -3.859375 10.585938 -4.195312 11.234375 -4.875 C 11.890625 -5.550781 12.21875 -6.472656 12.21875 -7.640625 Z M 12.21875 -7.640625 "/></g></g></g><g fill="#000000" fill-opacity="1"><g transform="translate(190.062949, 28.63138)"><g><path d="M 11.015625 -15.453125 C 12.804688 -15.453125 14.234375 -14.867188 15.296875 -13.703125 C 16.367188 -12.546875 16.90625 -10.953125 16.90625 -8.921875 L 16.90625 0 L 12.25 0 L 12.25 -8.296875 C 12.25 -9.316406 11.984375 -10.109375 11.453125 -10.671875 C 10.921875 -11.242188 10.207031 -11.53125 9.3125 -11.53125 C 8.414062 -11.53125 7.703125 -11.242188 7.171875 -10.671875 C 6.640625 -10.109375 6.375 -9.316406 6.375 -8.296875 L 6.375 0 L 1.703125 0 L 1.703125 -15.28125 L 6.375 -15.28125 L 6.375 -13.25 C 6.851562 -13.925781 7.492188 -14.460938 8.296875 -14.859375 C 9.097656 -15.253906 10.003906 -15.453125 11.015625 -15.453125 Z M 11.015625 -15.453125 "/></g></g></g><g fill="#000000" fill-opacity="1"><g transform="translate(208.51827, 28.63138)"><g/></g></g><g fill="#000000" fill-opacity="1"><g transform="translate(214.323203, 28.63138)"><g><path d="M 16.40625 0 L 14.625 -1.71875 C 12.851562 -0.375 10.734375 0.296875 8.265625 0.296875 C 6.785156 0.296875 5.5 0.0546875 4.40625 -0.421875 C 3.3125 -0.910156 2.46875 -1.597656 1.875 -2.484375 C 1.28125 -3.367188 0.984375 -4.40625 0.984375 -5.59375 C 0.984375 -6.789062 1.304688 -7.878906 1.953125 -8.859375 C 2.609375 -9.835938 3.582031 -10.632812 4.875 -11.25 C 4.394531 -11.84375 4.054688 -12.40625 3.859375 -12.9375 C 3.660156 -13.476562 3.5625 -14.066406 3.5625 -14.703125 C 3.5625 -15.617188 3.796875 -16.453125 4.265625 -17.203125 C 4.742188 -17.953125 5.4375 -18.539062 6.34375 -18.96875 C 7.25 -19.394531 8.320312 -19.609375 9.5625 -19.609375 C 10.820312 -19.609375 11.890625 -19.378906 12.765625 -18.921875 C 13.640625 -18.472656 14.296875 -17.863281 14.734375 -17.09375 C 15.171875 -16.320312 15.375 -15.484375 15.34375 -14.578125 L 10.921875 -14.578125 C 10.941406 -15.066406 10.816406 -15.441406 10.546875 -15.703125 C 10.285156 -15.972656 9.9375 -16.109375 9.5 -16.109375 C 9.0625 -16.109375 8.695312 -15.976562 8.40625 -15.71875 C 8.113281 -15.46875 7.96875 -15.140625 7.96875 -14.734375 C 7.96875 -14.347656 8.085938 -13.945312 8.328125 -13.53125 C 8.578125 -13.113281 8.96875 -12.628906 9.5 -12.078125 L 14.1875 -7.5 C 14.226562 -7.59375 14.28125 -7.703125 14.34375 -7.828125 C 14.40625 -7.960938 14.472656 -8.109375 14.546875 -8.265625 L 15.5625 -10 L 20.234375 -10 L 18.921875 -7.609375 C 18.429688 -6.535156 17.867188 -5.515625 17.234375 -4.546875 L 21.859375 0 Z M 8.484375 -3.484375 C 9.710938 -3.484375 10.800781 -3.828125 11.75 -4.515625 L 7.484375 -8.65625 C 6.160156 -7.976562 5.5 -7.066406 5.5 -5.921875 C 5.5 -5.222656 5.769531 -4.640625 6.3125 -4.171875 C 6.851562 -3.710938 7.578125 -3.484375 8.484375 -3.484375 Z M 8.484375 -3.484375 "/></g></g></g><g fill="#000000" fill-opacity="1"><g transform="translate(236.173881, 28.63138)"><g/></g></g><g fill="#000000" fill-opacity="1"><g transform="translate(241.978815, 28.63138)"><g><path d="M 0.90625 -9.640625 C 0.90625 -11.535156 1.316406 -13.226562 2.140625 -14.71875 C 2.960938 -16.207031 4.109375 -17.367188 5.578125 -18.203125 C 7.046875 -19.035156 8.710938 -19.453125 10.578125 -19.453125 C 12.859375 -19.453125 14.8125 -18.847656 16.4375 -17.640625 C 18.0625 -16.429688 19.144531 -14.785156 19.6875 -12.703125 L 14.546875 -12.703125 C 14.160156 -13.515625 13.613281 -14.128906 12.90625 -14.546875 C 12.207031 -14.960938 11.410156 -15.171875 10.515625 -15.171875 C 9.078125 -15.171875 7.910156 -14.664062 7.015625 -13.65625 C 6.117188 -12.65625 5.671875 -11.316406 5.671875 -9.640625 C 5.671875 -7.960938 6.117188 -6.617188 7.015625 -5.609375 C 7.910156 -4.609375 9.078125 -4.109375 10.515625 -4.109375 C 11.410156 -4.109375 12.207031 -4.316406 12.90625 -4.734375 C 13.613281 -5.160156 14.160156 -5.773438 14.546875 -6.578125 L 19.6875 -6.578125 C 19.144531 -4.492188 18.0625 -2.851562 16.4375 -1.65625 C 14.8125 -0.457031 12.859375 0.140625 10.578125 0.140625 C 8.710938 0.140625 7.046875 -0.273438 5.578125 -1.109375 C 4.109375 -1.941406 2.960938 -3.097656 2.140625 -4.578125 C 1.316406 -6.054688 0.90625 -7.742188 0.90625 -9.640625 Z M 0.90625 -9.640625 "/></g></g></g><g fill="#000000" fill-opacity="1"><g transform="translate(262.843746, 28.63138)"><g><path d="M 0.765625 -7.671875 C 0.765625 -9.242188 1.0625 -10.617188 1.65625 -11.796875 C 2.25 -12.984375 3.054688 -13.894531 4.078125 -14.53125 C 5.097656 -15.175781 6.238281 -15.5 7.5 -15.5 C 8.582031 -15.5 9.53125 -15.28125 10.34375 -14.84375 C 11.15625 -14.40625 11.78125 -13.832031 12.21875 -13.125 L 12.21875 -15.28125 L 16.90625 -15.28125 L 16.90625 0 L 12.21875 0 L 12.21875 -2.15625 C 11.757812 -1.445312 11.125 -0.875 10.3125 -0.4375 C 9.5 0 8.554688 0.21875 7.484375 0.21875 C 6.234375 0.21875 5.097656 -0.101562 4.078125 -0.75 C 3.054688 -1.394531 2.25 -2.316406 1.65625 -3.515625 C 1.0625 -4.710938 0.765625 -6.097656 0.765625 -7.671875 Z M 12.21875 -7.640625 C 12.21875 -8.804688 11.890625 -9.726562 11.234375 -10.40625 C 10.585938 -11.082031 9.800781 -11.421875 8.875 -11.421875 C 7.945312 -11.421875 7.15625 -11.085938 6.5 -10.421875 C 5.851562 -9.753906 5.53125 -8.835938 5.53125 -7.671875 C 5.53125 -6.503906 5.851562 -5.578125 6.5 -4.890625 C 7.15625 -4.203125 7.945312 -3.859375 8.875 -3.859375 C 9.800781 -3.859375 10.585938 -4.195312 11.234375 -4.875 C 11.890625 -5.550781 12.21875 -6.472656 12.21875 -7.640625 Z M 12.21875 -7.640625 "/></g></g></g><g fill="#000000" fill-opacity="1"><g transform="translate(281.435992, 28.63138)"><g><path d="M 6.375 -12.734375 C 6.925781 -13.578125 7.613281 -14.238281 8.4375 -14.71875 C 9.257812 -15.207031 10.171875 -15.453125 11.171875 -15.453125 L 11.171875 -10.484375 L 9.890625 -10.484375 C 8.722656 -10.484375 7.84375 -10.234375 7.25 -9.734375 C 6.664062 -9.234375 6.375 -8.351562 6.375 -7.09375 L 6.375 0 L 1.703125 0 L 1.703125 -15.28125 L 6.375 -15.28125 Z M 6.375 -12.734375 "/></g></g></g><g fill="#000000" fill-opacity="1"><g transform="translate(293.155406, 28.63138)"><g><path d="M 16.109375 -7.890625 C 16.109375 -7.453125 16.082031 -6.992188 16.03125 -6.515625 L 5.421875 -6.515625 C 5.492188 -5.566406 5.800781 -4.84375 6.34375 -4.34375 C 6.882812 -3.84375 7.546875 -3.59375 8.328125 -3.59375 C 9.492188 -3.59375 10.304688 -4.082031 10.765625 -5.0625 L 15.75 -5.0625 C 15.488281 -4.0625 15.023438 -3.160156 14.359375 -2.359375 C 13.691406 -1.554688 12.859375 -0.925781 11.859375 -0.46875 C 10.859375 -0.0078125 9.734375 0.21875 8.484375 0.21875 C 6.992188 0.21875 5.660156 -0.0976562 4.484375 -0.734375 C 3.316406 -1.378906 2.40625 -2.296875 1.75 -3.484375 C 1.09375 -4.671875 0.765625 -6.054688 0.765625 -7.640625 C 0.765625 -9.234375 1.085938 -10.617188 1.734375 -11.796875 C 2.390625 -12.984375 3.300781 -13.894531 4.46875 -14.53125 C 5.632812 -15.175781 6.972656 -15.5 8.484375 -15.5 C 9.960938 -15.5 11.273438 -15.1875 12.421875 -14.5625 C 13.578125 -13.945312 14.476562 -13.0625 15.125 -11.90625 C 15.78125 -10.757812 16.109375 -9.421875 16.109375 -7.890625 Z M 11.3125 -9.125 C 11.3125 -9.925781 11.035156 -10.5625 10.484375 -11.03125 C 9.941406 -11.507812 9.257812 -11.75 8.4375 -11.75 C 7.65625 -11.75 6.992188 -11.519531 6.453125 -11.0625 C 5.910156 -10.601562 5.578125 -9.957031 5.453125 -9.125 Z M 11.3125 -9.125 "/></g></g></g></g></g></svg>